<?xml version="1.0" encoding="UTF-8" standalone="no"?>
<!-- Created with Inkscape (http://www.inkscape.org/) -->

<svg
   width="1650"
   height="2250"
   viewBox="75 75 1650 2250"
   version="1.1"
   id="svg1"
   inkscape:version="1.4.2 (ebf0e94, 2025-05-08)"
   sodipodi:docname="mask3.svg"
   inkscape:export-filename="mask2.png"
   inkscape:export-xdpi="96"
   inkscape:export-ydpi="96"
   xml:space="preserve"
   xmlns:inkscape="http://www.inkscape.org/namespaces/inkscape"
   xmlns:sodipodi="http://sodipodi.sourceforge.net/DTD/sodipodi-0.dtd"
   xmlns:xlink="http://www.w3.org/1999/xlink"
   xmlns="http://www.w3.org/2000/svg"
   xmlns:svg="http://www.w3.org/2000/svg"><sodipodi:namedview
     id="namedview1"
     pagecolor="#ffffff"
     bordercolor="#000000"
     borderopacity="0.25"
     inkscape:showpageshadow="2"
     inkscape:pageopacity="0.0"
     inkscape:pagecheckerboard="0"
     inkscape:deskcolor="#d1d1d1"
     inkscape:document-units="px"
     showguides="false"
     inkscape:lockguides="true"
     showgrid="true"
     inkscape:zoom="0.35355339"
     inkscape:cx="1199.2531"
     inkscape:cy="1093.1871"
     inkscape:window-width="1920"
     inkscape:window-height="1017"
     inkscape:window-x="1912"
     inkscape:window-y="-8"
     inkscape:window-maximized="1"
     inkscape:current-layer="layer1"><sodipodi:guide
       position="0,2250"
       orientation="0,1650"
       id="guide1"
       inkscape:locked="true" /><sodipodi:guide
       position="1650,2250"
       orientation="2250,0"
       id="guide2"
       inkscape:locked="true" /><sodipodi:guide
       position="1650,0"
       orientation="0,-1650"
       id="guide3"
       inkscape:locked="true" /><sodipodi:guide
       position="0,0"
       orientation="-2250,0"
       id="guide4"
       inkscape:locked="true" /><sodipodi:guide
       position="75,2175"
       orientation="-1,0"
       id="guide5"
       inkscape:locked="true"
       inkscape:label=""
       inkscape:color="rgb(0,134,229)" /><sodipodi:guide
       position="75,2175"
       orientation="0,1"
       id="guide6"
       inkscape:locked="true"
       inkscape:label=""
       inkscape:color="rgb(0,134,229)" /><sodipodi:guide
       position="1575,75"
       orientation="0,1"
       id="guide7"
       inkscape:locked="true"
       inkscape:label=""
       inkscape:color="rgb(0,134,229)" /><sodipodi:guide
       position="1575,75"
       orientation="-1,0"
       id="guide8"
       inkscape:label=""
       inkscape:locked="true"
       inkscape:color="rgb(0,134,229)" /><inkscape:grid
       id="grid8"
       units="px"
       originx="75"
       originy="75"
       spacingx="37.5"
       spacingy="37.5"
       empcolor="#0099e5"
       empopacity="0.30196078"
       color="#0099e5"
       opacity="0.14901961"
       empspacing="4"
       enabled="true"
       visible="true" /><sodipodi:guide
       position="225,2025"
       orientation="-1,0"
       id="guide9"
       inkscape:locked="true"
       inkscape:label=""
       inkscape:color="rgb(0,134,229)" /><sodipodi:guide
       position="225,2025"
       orientation="0,1"
       id="guide10"
       inkscape:label=""
       inkscape:locked="true"
       inkscape:color="rgb(0,134,229)" /><sodipodi:guide
       position="1425,225"
       orientation="-1,0"
       id="guide11"
       inkscape:locked="true"
       inkscape:label=""
       inkscape:color="rgb(0,134,229)" /><sodipodi:guide
       position="1425,225"
       orientation="0,1"
       id="guide12"
       inkscape:label=""
       inkscape:locked="true"
       inkscape:color="rgb(0,134,229)" /></sodipodi:namedview><defs
     id="defs1" /><g
     inkscape:label="Layer 1"
     inkscape:groupmode="layer"
     id="layer1"><rect
       style="fill:#000000;fill-opacity:0.66294229"
       id="rect9"
       width="1500"
       height="2100"
       x="150"
       y="150"
       rx="50"
       ry="50" /><image
       width="1650.0024"
       height="2248.0034"
       preserveAspectRatio="none"
       xlink:href="../../../../../Users/gusch/Downloads/8df04201-8590-46e6-9e19-9f13d444e732.png"
       id="image1"
       x="75"
       y="75"
       style="fill:#000000;fill-opacity:0.66294229" /><path
       id="rect12"
       d="m 419.5187,316.85508 c 9.89469,-0.78418 37.62784,-0.0908 78.49297,-1.51663 30.72381,-8.21437 41.20823,-7.13764 66.72276,-0.48782 6.34259,0.74303 25.02553,1.62288 39.9406,-1.53306 3.0736,-0.65035 13.0617,-4.33498 29.118,-4.74995 18.2248,-0.47101 78.34371,-5.78461 103.73068,6.03159 16.74096,7.79197 151.09456,1.80687 415.96999,2.34815 47.231,-12.62556 74.7095,-21.89457 110.2579,-2.48157 64.3026,-5.76374 96.3058,1.1686 118.9984,4.03421 26.3302,12.41903 1.716,84.43467 25.5454,93.01712 17.227,6.20453 22.8056,-38.0306 45.19,-34.30805 11.8542,-3.54206 17.1532,26.56492 23.556,33.29098 9.4802,9.95869 15.7685,23.18829 26.2813,37.31653 5.8353,7.84215 25.2553,14.56891 25.4273,25.18342 -1.3873,12.44197 -21.1485,19.88779 -39.9699,40.26879 -14.1132,15.28279 -17.3265,54.79194 -37.6613,55.06529 -22.734,0.3056 -25.6185,-43.97154 -51.2925,-34.61787 -11.0584,4.02885 2.1091,81.32713 -8.7226,86.9909 -4.5492,0.085 -3.7869,3.34444 -8.3199,3.41508 -14.1257,0.22012 -35.2428,-2.02196 -48.4149,4.15133 -19.8105,9.28449 -65.6133,19.23767 -104.3145,-4.22248 -8.471,0.96679 -167.7655,-1.11352 -362.73813,-2.0113 -16.40626,5.93811 -29.59875,8.59183 -47.73129,-0.19166 -23.79929,10.85639 -54.93108,7.60612 -92.98612,-0.18984 -18.29306,4.103 -37.98522,-0.20281 -57.27575,4.35694 -39.14497,-8.30871 -35.21731,3.83347 -78.6015,3.24762 -11.71884,-0.15825 -26.88154,0.29387 -43.08938,-2.88662 -28.13357,-5.52068 -62.34607,-5.16233 -94.4724,-2.73525 -19.38837,1.46476 -34.42107,-0.51161 -48.21834,-3.17564 -14.82423,-20.77115 -14.67606,-59.96428 -11.83573,-85.98157 -16.40005,-16.96417 -38.29933,55.98278 -62.81642,22.63341 -25.58714,-70.61018 -63.3758,-71.05643 -63.16657,-88.54123 0.37273,-18.26193 27.08573,-0.79086 60.28269,-76.25442 2.47948,-5.63637 5.52546,-16.56416 12.13487,-17.28062 10.61611,-3.11897 18.8119,1.31547 25.5575,9.85869 20.70138,9.60294 15.75247,22.98311 26.86246,18.74963 6.316,-3.90396 -0.27047,-14.46148 -5.5948,-27.81486 -7.20108,-18.06027 16.89974,-61.89399 33.15321,-58.97924 z"
       sodipodi:nodetypes="cccssscccscsscssscsscccccsssccccscccsc"
       style="fill:#000000;fill-opacity:0.662942" /><rect
       style="fill:#000000;fill-opacity:0.662942;stroke-width:2.0016"
       id="rect13"
       width="1027.4659"
       height="1403.7401"
       x="382.02438"
       y="682.11774" /></g><g
     inkscape:groupmode="layer"
     id="layer2"
     inkscape:label="Border"
     style="display:none"><g
       id="g17"
       style="fill:#ffffff"><rect
         style="fill:#ffffff"
         id="rect14"
         width="126.71387"
         height="2253.3032"
         x="63.9814"
         y="75" /><rect
         style="fill:#ffffff"
         id="rect15"
         width="1988.8569"
         height="187.31616"
         x="-18.658081"
         y="-7.6394882" /><rect
         style="fill:#ffffff"
         id="rect16"
         width="457.27182"
         height="2831.7798"
         x="1562.5107"
         y="-161.89986" /><rect
         style="fill:#ffffff"
         id="rect17"
         width="2143.1174"
         height="385.65094"
         x="-84.769669"
         y="2152.0059" /></g></g></svg>
