# 3ds Max Wavefront OBJ Exporter v0.97b - (c)2007 guruware
# File Created: 18.12.2015 18:43:24

mtllib base small.mtl

#
# object Cylinder01
#

v  0.0000 0.0000 -0.0000
v  0.5000 0.0000 -0.0000
v  0.4699 0.0000 -0.1710
v  0.3830 0.0000 -0.3214
v  0.2500 0.0000 -0.4330
v  0.0868 0.0000 -0.4924
v  -0.0868 0.0000 -0.4924
v  -0.2500 0.0000 -0.4330
v  -0.3830 0.0000 -0.3214
v  -0.4699 0.0000 -0.1710
v  -0.5000 0.0000 -0.0000
v  -0.4699 0.0000 0.1710
v  -0.3830 0.0000 0.3214
v  -0.2500 0.0000 0.4330
v  -0.0868 0.0000 0.4924
v  0.0868 0.0000 0.4924
v  0.2500 0.0000 0.4330
v  0.3830 0.0000 0.3214
v  0.4699 0.0000 0.1710
v  0.5000 0.0200 -0.0000
v  0.4699 0.0200 -0.1710
v  0.3830 0.0200 -0.3214
v  0.2500 0.0200 -0.4330
v  0.0868 0.0200 -0.4924
v  -0.0868 0.0200 -0.4924
v  -0.2500 0.0200 -0.4330
v  -0.3830 0.0200 -0.3214
v  -0.4699 0.0200 -0.1710
v  -0.5000 0.0200 -0.0000
v  -0.4699 0.0200 0.1710
v  -0.3830 0.0200 0.3214
v  -0.2500 0.0200 0.4330
v  -0.0868 0.0200 0.4924
v  0.0868 0.0200 0.4924
v  0.2500 0.0200 0.4330
v  0.3830 0.0200 0.3214
v  0.4699 0.0200 0.1710
v  0.5000 0.0400 -0.0000
v  0.4699 0.0400 -0.1710
v  0.3830 0.0400 -0.3214
v  0.2500 0.0400 -0.4330
v  0.0868 0.0400 -0.4924
v  -0.0868 0.0400 -0.4924
v  -0.2500 0.0400 -0.4330
v  -0.3830 0.0400 -0.3214
v  -0.4699 0.0400 -0.1710
v  -0.5000 0.0400 -0.0000
v  -0.4699 0.0400 0.1710
v  -0.3830 0.0400 0.3214
v  -0.2500 0.0400 0.4330
v  -0.0868 0.0400 0.4924
v  0.0868 0.0400 0.4924
v  0.2500 0.0400 0.4330
v  0.3830 0.0400 0.3214
v  0.4699 0.0400 0.1710
v  0.5000 0.0600 -0.0000
v  0.4699 0.0600 -0.1710
v  0.3830 0.0600 -0.3214
v  0.2500 0.0600 -0.4330
v  0.0868 0.0600 -0.4924
v  -0.0868 0.0600 -0.4924
v  -0.2500 0.0600 -0.4330
v  -0.3830 0.0600 -0.3214
v  -0.4699 0.0600 -0.1710
v  -0.5000 0.0600 -0.0000
v  -0.4699 0.0600 0.1710
v  -0.3830 0.0600 0.3214
v  -0.2500 0.0600 0.4330
v  -0.0868 0.0600 0.4924
v  0.0868 0.0600 0.4924
v  0.2500 0.0600 0.4330
v  0.3830 0.0600 0.3214
v  0.4699 0.0600 0.1710
v  0.5000 0.0800 -0.0000
v  0.4699 0.0800 -0.1710
v  0.3830 0.0800 -0.3214
v  0.2500 0.0800 -0.4330
v  0.0868 0.0800 -0.4924
v  -0.0868 0.0800 -0.4924
v  -0.2500 0.0800 -0.4330
v  -0.3830 0.0800 -0.3214
v  -0.4699 0.0800 -0.1710
v  -0.5000 0.0800 -0.0000
v  -0.4699 0.0800 0.1710
v  -0.3830 0.0800 0.3214
v  -0.2500 0.0800 0.4330
v  -0.0868 0.0800 0.4924
v  0.0868 0.0800 0.4924
v  0.2500 0.0800 0.4330
v  0.3830 0.0800 0.3214
v  0.4699 0.0800 0.1710
v  0.5000 0.1000 -0.0000
v  0.4699 0.1000 -0.1710
v  0.3830 0.1000 -0.3214
v  0.2500 0.1000 -0.4330
v  0.0868 0.1000 -0.4924
v  -0.0868 0.1000 -0.4924
v  -0.2500 0.1000 -0.4330
v  -0.3830 0.1000 -0.3214
v  -0.4699 0.1000 -0.1710
v  -0.5000 0.1000 -0.0000
v  -0.4699 0.1000 0.1710
v  -0.3830 0.1000 0.3214
v  -0.2500 0.1000 0.4330
v  -0.0868 0.1000 0.4924
v  0.0868 0.1000 0.4924
v  0.2500 0.1000 0.4330
v  0.3830 0.1000 0.3214
v  0.4699 0.1000 0.1710
v  0.0000 0.1000 -0.0000
# 110 vertices

vn 0.0000 -1.0000 -0.0000
vn 0.0000 -1.0000 -0.0000
vn 0.0000 -1.0000 -0.0000
vn 0.0000 -1.0000 -0.0000
vn 0.0000 -1.0000 -0.0000
vn 0.0000 -1.0000 -0.0000
vn 0.0000 -1.0000 -0.0000
vn 0.0000 -1.0000 -0.0000
vn 0.0000 -1.0000 -0.0000
vn 0.0000 -1.0000 -0.0000
vn 0.0000 -1.0000 -0.0000
vn 0.0000 -1.0000 -0.0000
vn 0.0000 -1.0000 -0.0000
vn 0.0000 -1.0000 -0.0000
vn 0.0000 -1.0000 -0.0000
vn 0.0000 -1.0000 -0.0000
vn 0.0000 -1.0000 -0.0000
vn 0.0000 -1.0000 -0.0000
vn 0.0000 -1.0000 -0.0000
vn 0.0000 -1.0000 -0.0000
vn 0.0000 -1.0000 -0.0000
vn 0.0000 -1.0000 -0.0000
vn 0.0000 -1.0000 -0.0000
vn 0.0000 -1.0000 -0.0000
vn 0.0000 -1.0000 -0.0000
vn 0.0000 -1.0000 -0.0000
vn 0.0000 -1.0000 -0.0000
vn 0.0000 -1.0000 -0.0000
vn 0.0000 -1.0000 -0.0000
vn 0.0000 -1.0000 -0.0000
vn 0.0000 -1.0000 -0.0000
vn 0.0000 -1.0000 -0.0000
vn 0.0000 -1.0000 -0.0000
vn 0.0000 -1.0000 -0.0000
vn 0.0000 -1.0000 -0.0000
vn 0.0000 -1.0000 -0.0000
vn 1.0000 0.0000 -0.0000
vn 0.9397 0.0000 -0.3420
vn 0.9397 0.0000 -0.3420
vn 1.0000 0.0000 -0.0000
vn 0.9397 0.0000 -0.3420
vn 0.7660 0.0000 -0.6428
vn 0.7660 0.0000 -0.6428
vn 0.9397 0.0000 -0.3420
vn 0.7660 0.0000 -0.6428
vn 0.5000 0.0000 -0.8660
vn 0.5000 0.0000 -0.8660
vn 0.7660 0.0000 -0.6428
vn 0.5000 0.0000 -0.8660
vn 0.1736 0.0000 -0.9848
vn 0.1736 0.0000 -0.9848
vn 0.5000 0.0000 -0.8660
vn 0.1736 0.0000 -0.9848
vn -0.1736 0.0000 -0.9848
vn -0.1736 0.0000 -0.9848
vn 0.1736 0.0000 -0.9848
vn -0.1736 0.0000 -0.9848
vn -0.5000 0.0000 -0.8660
vn -0.5000 0.0000 -0.8660
vn -0.1736 0.0000 -0.9848
vn -0.5000 0.0000 -0.8660
vn -0.7660 0.0000 -0.6428
vn -0.7660 0.0000 -0.6428
vn -0.5000 0.0000 -0.8660
vn -0.7660 0.0000 -0.6428
vn -0.9397 0.0000 -0.3420
vn -0.9397 0.0000 -0.3420
vn -0.7660 0.0000 -0.6428
vn -0.9397 0.0000 -0.3420
vn -1.0000 0.0000 -0.0000
vn -1.0000 0.0000 -0.0000
vn -0.9397 0.0000 -0.3420
vn -1.0000 0.0000 -0.0000
vn -0.9397 0.0000 0.3420
vn -0.9397 0.0000 0.3420
vn -1.0000 0.0000 -0.0000
vn -0.9397 0.0000 0.3420
vn -0.7660 0.0000 0.6428
vn -0.7660 0.0000 0.6428
vn -0.9397 0.0000 0.3420
vn -0.7660 0.0000 0.6428
vn -0.5000 0.0000 0.8660
vn -0.5000 0.0000 0.8660
vn -0.7660 0.0000 0.6428
vn -0.5000 0.0000 0.8660
vn -0.1736 0.0000 0.9848
vn -0.1736 0.0000 0.9848
vn -0.5000 0.0000 0.8660
vn -0.1736 0.0000 0.9848
vn 0.1736 0.0000 0.9848
vn 0.1736 0.0000 0.9848
vn -0.1736 0.0000 0.9848
vn 0.1736 0.0000 0.9848
vn 0.5000 0.0000 0.8660
vn 0.5000 0.0000 0.8660
vn 0.1736 0.0000 0.9848
vn 0.5000 0.0000 0.8660
vn 0.7660 0.0000 0.6428
vn 0.7660 0.0000 0.6428
vn 0.5000 0.0000 0.8660
vn 0.7660 0.0000 0.6428
vn 0.9397 0.0000 0.3420
vn 0.9397 0.0000 0.3420
vn 0.7660 0.0000 0.6428
vn 0.9397 0.0000 0.3420
vn 1.0000 0.0000 -0.0000
vn 1.0000 0.0000 -0.0000
vn 0.9397 0.0000 0.3420
vn 1.0000 0.0000 -0.0000
vn 0.9397 0.0000 -0.3420
vn 0.9397 0.0000 -0.3420
vn 1.0000 0.0000 -0.0000
vn 0.9397 0.0000 -0.3420
vn 0.7660 0.0000 -0.6428
vn 0.7660 0.0000 -0.6428
vn 0.9397 0.0000 -0.3420
vn 0.7660 0.0000 -0.6428
vn 0.5000 0.0000 -0.8660
vn 0.5000 0.0000 -0.8660
vn 0.7660 0.0000 -0.6428
vn 0.5000 0.0000 -0.8660
vn 0.1736 0.0000 -0.9848
vn 0.1736 0.0000 -0.9848
vn 0.5000 0.0000 -0.8660
vn 0.1736 0.0000 -0.9848
vn -0.1736 0.0000 -0.9848
vn -0.1736 0.0000 -0.9848
vn 0.1736 0.0000 -0.9848
vn -0.1736 0.0000 -0.9848
vn -0.5000 0.0000 -0.8660
vn -0.5000 0.0000 -0.8660
vn -0.1736 0.0000 -0.9848
vn -0.5000 0.0000 -0.8660
vn -0.7660 0.0000 -0.6428
vn -0.7660 0.0000 -0.6428
vn -0.5000 0.0000 -0.8660
vn -0.7660 0.0000 -0.6428
vn -0.9397 0.0000 -0.3420
vn -0.9397 0.0000 -0.3420
vn -0.7660 0.0000 -0.6428
vn -0.9397 0.0000 -0.3420
vn -1.0000 0.0000 -0.0000
vn -1.0000 0.0000 -0.0000
vn -0.9397 0.0000 -0.3420
vn -1.0000 0.0000 -0.0000
vn -0.9397 0.0000 0.3420
vn -0.9397 0.0000 0.3420
vn -1.0000 0.0000 -0.0000
vn -0.9397 0.0000 0.3420
vn -0.7660 0.0000 0.6428
vn -0.7660 0.0000 0.6428
vn -0.9397 0.0000 0.3420
vn -0.7660 0.0000 0.6428
vn -0.5000 0.0000 0.8660
vn -0.5000 0.0000 0.8660
vn -0.7660 0.0000 0.6428
vn -0.5000 0.0000 0.8660
vn -0.1736 0.0000 0.9848
vn -0.1736 0.0000 0.9848
vn -0.5000 0.0000 0.8660
vn -0.1736 0.0000 0.9848
vn 0.1736 0.0000 0.9848
vn 0.1736 0.0000 0.9848
vn -0.1736 0.0000 0.9848
vn 0.1736 0.0000 0.9848
vn 0.5000 0.0000 0.8660
vn 0.5000 0.0000 0.8660
vn 0.1736 0.0000 0.9848
vn 0.5000 0.0000 0.8660
vn 0.7660 0.0000 0.6428
vn 0.7660 0.0000 0.6428
vn 0.5000 0.0000 0.8660
vn 0.7660 0.0000 0.6428
vn 0.9397 0.0000 0.3420
vn 0.9397 0.0000 0.3420
vn 0.7660 0.0000 0.6428
vn 0.9397 0.0000 0.3420
vn 1.0000 0.0000 -0.0000
vn 1.0000 0.0000 -0.0000
vn 0.9397 0.0000 0.3420
vn 1.0000 0.0000 -0.0000
vn 0.9397 0.0000 -0.3420
vn 0.9397 0.0000 -0.3420
vn 1.0000 0.0000 -0.0000
vn 0.9397 0.0000 -0.3420
vn 0.7660 0.0000 -0.6428
vn 0.7660 0.0000 -0.6428
vn 0.9397 0.0000 -0.3420
vn 0.7660 0.0000 -0.6428
vn 0.5000 0.0000 -0.8660
vn 0.5000 0.0000 -0.8660
vn 0.7660 0.0000 -0.6428
vn 0.5000 0.0000 -0.8660
vn 0.1736 0.0000 -0.9848
vn 0.1736 0.0000 -0.9848
vn 0.5000 0.0000 -0.8660
vn 0.1736 0.0000 -0.9848
vn -0.1736 0.0000 -0.9848
vn -0.1736 0.0000 -0.9848
vn 0.1736 0.0000 -0.9848
vn -0.1736 0.0000 -0.9848
vn -0.5000 0.0000 -0.8660
vn -0.5000 0.0000 -0.8660
vn -0.1736 0.0000 -0.9848
vn -0.5000 0.0000 -0.8660
vn -0.7660 0.0000 -0.6428
vn -0.7660 0.0000 -0.6428
vn -0.5000 0.0000 -0.8660
vn -0.7660 0.0000 -0.6428
vn -0.9397 0.0000 -0.3420
vn -0.9397 0.0000 -0.3420
vn -0.7660 0.0000 -0.6428
vn -0.9397 0.0000 -0.3420
vn -1.0000 0.0000 -0.0000
vn -1.0000 0.0000 -0.0000
vn -0.9397 0.0000 -0.3420
vn -1.0000 0.0000 -0.0000
vn -0.9397 0.0000 0.3420
vn -0.9397 0.0000 0.3420
vn -1.0000 0.0000 -0.0000
vn -0.9397 0.0000 0.3420
vn -0.7660 0.0000 0.6428
vn -0.7660 0.0000 0.6428
vn -0.9397 0.0000 0.3420
vn -0.7660 0.0000 0.6428
vn -0.5000 0.0000 0.8660
vn -0.5000 0.0000 0.8660
vn -0.7660 0.0000 0.6428
vn -0.5000 0.0000 0.8660
vn -0.1736 0.0000 0.9848
vn -0.1736 0.0000 0.9848
vn -0.5000 0.0000 0.8660
vn -0.1736 0.0000 0.9848
vn 0.1736 0.0000 0.9848
vn 0.1736 0.0000 0.9848
vn -0.1736 0.0000 0.9848
vn 0.1736 0.0000 0.9848
vn 0.5000 0.0000 0.8660
vn 0.5000 0.0000 0.8660
vn 0.1736 0.0000 0.9848
vn 0.5000 0.0000 0.8660
vn 0.7660 0.0000 0.6428
vn 0.7660 0.0000 0.6428
vn 0.5000 0.0000 0.8660
vn 0.7660 0.0000 0.6428
vn 0.9397 0.0000 0.3420
vn 0.9397 0.0000 0.3420
vn 0.7660 0.0000 0.6428
vn 0.9397 0.0000 0.3420
vn 1.0000 0.0000 -0.0000
vn 1.0000 0.0000 -0.0000
vn 0.9397 0.0000 0.3420
vn 1.0000 0.0000 -0.0000
vn 0.9397 0.0000 -0.3420
vn 0.9397 0.0000 -0.3420
vn 1.0000 0.0000 -0.0000
vn 0.9397 0.0000 -0.3420
vn 0.7660 0.0000 -0.6428
vn 0.7660 0.0000 -0.6428
vn 0.9397 0.0000 -0.3420
vn 0.7660 0.0000 -0.6428
vn 0.5000 0.0000 -0.8660
vn 0.5000 0.0000 -0.8660
vn 0.7660 0.0000 -0.6428
vn 0.5000 0.0000 -0.8660
vn 0.1736 0.0000 -0.9848
vn 0.1736 0.0000 -0.9848
vn 0.5000 0.0000 -0.8660
vn 0.1736 0.0000 -0.9848
vn -0.1736 0.0000 -0.9848
vn -0.1736 0.0000 -0.9848
vn 0.1736 0.0000 -0.9848
vn -0.1736 0.0000 -0.9848
vn -0.5000 0.0000 -0.8660
vn -0.5000 0.0000 -0.8660
vn -0.1736 0.0000 -0.9848
vn -0.5000 0.0000 -0.8660
vn -0.7660 0.0000 -0.6428
vn -0.7660 0.0000 -0.6428
vn -0.5000 0.0000 -0.8660
vn -0.7660 0.0000 -0.6428
vn -0.9397 0.0000 -0.3420
vn -0.9397 0.0000 -0.3420
vn -0.7660 0.0000 -0.6428
vn -0.9397 0.0000 -0.3420
vn -1.0000 0.0000 -0.0000
vn -1.0000 0.0000 -0.0000
vn -0.9397 0.0000 -0.3420
vn -1.0000 0.0000 -0.0000
vn -0.9397 0.0000 0.3420
vn -0.9397 0.0000 0.3420
vn -1.0000 0.0000 -0.0000
vn -0.9397 0.0000 0.3420
vn -0.7660 0.0000 0.6428
vn -0.7660 0.0000 0.6428
vn -0.9397 0.0000 0.3420
vn -0.7660 0.0000 0.6428
vn -0.5000 0.0000 0.8660
vn -0.5000 0.0000 0.8660
vn -0.7660 0.0000 0.6428
vn -0.5000 0.0000 0.8660
vn -0.1736 0.0000 0.9848
vn -0.1736 0.0000 0.9848
vn -0.5000 0.0000 0.8660
vn -0.1736 0.0000 0.9848
vn 0.1736 0.0000 0.9848
vn 0.1736 0.0000 0.9848
vn -0.1736 0.0000 0.9848
vn 0.1736 0.0000 0.9848
vn 0.5000 0.0000 0.8660
vn 0.5000 0.0000 0.8660
vn 0.1736 0.0000 0.9848
vn 0.5000 0.0000 0.8660
vn 0.7660 0.0000 0.6428
vn 0.7660 0.0000 0.6428
vn 0.5000 0.0000 0.8660
vn 0.7660 0.0000 0.6428
vn 0.9397 0.0000 0.3420
vn 0.9397 0.0000 0.3420
vn 0.7660 0.0000 0.6428
vn 0.9397 0.0000 0.3420
vn 1.0000 0.0000 -0.0000
vn 1.0000 0.0000 -0.0000
vn 0.9397 0.0000 0.3420
vn 1.0000 0.0000 -0.0000
vn 0.9397 0.0000 -0.3420
vn 0.9397 0.0000 -0.3420
vn 1.0000 0.0000 -0.0000
vn 0.9397 0.0000 -0.3420
vn 0.7660 0.0000 -0.6428
vn 0.7660 0.0000 -0.6428
vn 0.9397 0.0000 -0.3420
vn 0.7660 0.0000 -0.6428
vn 0.5000 0.0000 -0.8660
vn 0.5000 0.0000 -0.8660
vn 0.7660 0.0000 -0.6428
vn 0.5000 0.0000 -0.8660
vn 0.1736 0.0000 -0.9848
vn 0.1736 0.0000 -0.9848
vn 0.5000 0.0000 -0.8660
vn 0.1736 0.0000 -0.9848
vn -0.1736 0.0000 -0.9848
vn -0.1736 0.0000 -0.9848
vn 0.1736 0.0000 -0.9848
vn -0.1736 0.0000 -0.9848
vn -0.5000 0.0000 -0.8660
vn -0.5000 0.0000 -0.8660
vn -0.1736 0.0000 -0.9848
vn -0.5000 0.0000 -0.8660
vn -0.7660 0.0000 -0.6428
vn -0.7660 0.0000 -0.6428
vn -0.5000 0.0000 -0.8660
vn -0.7660 0.0000 -0.6428
vn -0.9397 0.0000 -0.3420
vn -0.9397 0.0000 -0.3420
vn -0.7660 0.0000 -0.6428
vn -0.9397 0.0000 -0.3420
vn -1.0000 0.0000 -0.0000
vn -1.0000 0.0000 -0.0000
vn -0.9397 0.0000 -0.3420
vn -1.0000 0.0000 -0.0000
vn -0.9397 0.0000 0.3420
vn -0.9397 0.0000 0.3420
vn -1.0000 0.0000 -0.0000
vn -0.9397 0.0000 0.3420
vn -0.7660 0.0000 0.6428
vn -0.7660 0.0000 0.6428
vn -0.9397 0.0000 0.3420
vn -0.7660 0.0000 0.6428
vn -0.5000 0.0000 0.8660
vn -0.5000 0.0000 0.8660
vn -0.7660 0.0000 0.6428
vn -0.5000 0.0000 0.8660
vn -0.1736 0.0000 0.9848
vn -0.1736 0.0000 0.9848
vn -0.5000 0.0000 0.8660
vn -0.1736 0.0000 0.9848
vn 0.1736 0.0000 0.9848
vn 0.1736 0.0000 0.9848
vn -0.1736 0.0000 0.9848
vn 0.1736 0.0000 0.9848
vn 0.5000 0.0000 0.8660
vn 0.5000 0.0000 0.8660
vn 0.1736 0.0000 0.9848
vn 0.5000 0.0000 0.8660
vn 0.7660 0.0000 0.6428
vn 0.7660 0.0000 0.6428
vn 0.5000 0.0000 0.8660
vn 0.7660 0.0000 0.6428
vn 0.9397 0.0000 0.3420
vn 0.9397 0.0000 0.3420
vn 0.7660 0.0000 0.6428
vn 0.9397 0.0000 0.3420
vn 1.0000 0.0000 -0.0000
vn 1.0000 0.0000 -0.0000
vn 0.9397 0.0000 0.3420
vn 0.0000 1.0000 -0.0000
vn 0.0000 1.0000 -0.0000
vn 0.0000 1.0000 -0.0000
vn 0.0000 1.0000 -0.0000
vn 0.0000 1.0000 -0.0000
vn 0.0000 1.0000 -0.0000
vn 0.0000 1.0000 -0.0000
vn 0.0000 1.0000 -0.0000
vn 0.0000 1.0000 -0.0000
vn 0.0000 1.0000 -0.0000
vn 0.0000 1.0000 -0.0000
vn 0.0000 1.0000 -0.0000
vn 0.0000 1.0000 -0.0000
vn 0.0000 1.0000 -0.0000
vn 0.0000 1.0000 -0.0000
vn 0.0000 1.0000 -0.0000
vn 0.0000 1.0000 -0.0000
vn 0.0000 1.0000 -0.0000
vn 0.0000 1.0000 -0.0000
vn 0.0000 1.0000 -0.0000
vn 0.0000 1.0000 -0.0000
vn 0.0000 1.0000 -0.0000
vn 0.0000 1.0000 -0.0000
vn 0.0000 1.0000 -0.0000
vn 0.0000 1.0000 -0.0000
vn 0.0000 1.0000 -0.0000
vn 0.0000 1.0000 -0.0000
vn 0.0000 1.0000 -0.0000
vn 0.0000 1.0000 -0.0000
vn 0.0000 1.0000 -0.0000
vn 0.0000 1.0000 -0.0000
vn 0.0000 1.0000 -0.0000
vn 0.0000 1.0000 -0.0000
vn 0.0000 1.0000 -0.0000
vn 0.0000 1.0000 -0.0000
vn 0.0000 1.0000 -0.0000
# 432 vertex normals

vt 0.2011 0.1211 1.0000
vt 0.2120 0.1211 1.0000
vt 0.2229 0.1211 1.0000
vt 0.2338 0.1211 1.0000
vt 0.2447 0.1211 1.0000
vt 0.0592 0.1211 1.0000
vt 0.0702 0.1211 1.0000
vt 0.0811 0.1211 1.0000
vt 0.0920 0.1211 1.0000
vt 0.1029 0.1211 1.0000
vt 0.1138 0.1211 1.0000
vt 0.1247 0.1211 1.0000
vt 0.1356 0.1211 1.0000
vt 0.1465 0.1211 1.0000
vt 0.1574 0.1211 1.0000
vt 0.1683 0.1211 1.0000
vt 0.1792 0.1211 1.0000
vt 0.1901 0.1211 1.0000
vt 0.2011 0.1217 1.0000
vt 0.2120 0.1217 1.0000
vt 0.2229 0.1217 1.0000
vt 0.2338 0.1217 1.0000
vt 0.2447 0.1217 1.0000
vt 0.0592 0.1217 1.0000
vt 0.0702 0.1217 1.0000
vt 0.0811 0.1217 1.0000
vt 0.0920 0.1217 1.0000
vt 0.1029 0.1217 1.0000
vt 0.1138 0.1217 1.0000
vt 0.1247 0.1217 1.0000
vt 0.1356 0.1217 1.0000
vt 0.1465 0.1217 1.0000
vt 0.1574 0.1217 1.0000
vt 0.1683 0.1217 1.0000
vt 0.1792 0.1217 1.0000
vt 0.1901 0.1217 1.0000
vt 0.2011 0.1224 1.0000
vt 0.2120 0.1224 1.0000
vt 0.2229 0.1224 1.0000
vt 0.2338 0.1224 1.0000
vt 0.2447 0.1224 1.0000
vt 0.0592 0.1224 1.0000
vt 0.0702 0.1224 1.0000
vt 0.0811 0.1224 1.0000
vt 0.0920 0.1224 1.0000
vt 0.1029 0.1224 1.0000
vt 0.1138 0.1224 1.0000
vt 0.1247 0.1224 1.0000
vt 0.1356 0.1224 1.0000
vt 0.1465 0.1224 1.0000
vt 0.1574 0.1224 1.0000
vt 0.1683 0.1224 1.0000
vt 0.1792 0.1224 1.0000
vt 0.1901 0.1224 1.0000
vt 0.2011 0.1230 1.0000
vt 0.2120 0.1230 1.0000
vt 0.2229 0.1230 1.0000
vt 0.2338 0.1230 1.0000
vt 0.2447 0.1230 1.0000
vt 0.0592 0.1230 1.0000
vt 0.0702 0.1230 1.0000
vt 0.0811 0.1230 1.0000
vt 0.0920 0.1230 1.0000
vt 0.1029 0.1230 1.0000
vt 0.1138 0.1230 1.0000
vt 0.1247 0.1230 1.0000
vt 0.1356 0.1230 1.0000
vt 0.1465 0.1230 1.0000
vt 0.1574 0.1230 1.0000
vt 0.1683 0.1230 1.0000
vt 0.1792 0.1230 1.0000
vt 0.1901 0.1230 1.0000
vt 0.2011 0.1236 1.0000
vt 0.2120 0.1236 1.0000
vt 0.2229 0.1236 1.0000
vt 0.2338 0.1236 1.0000
vt 0.2447 0.1236 1.0000
vt 0.0592 0.1236 1.0000
vt 0.0702 0.1236 1.0000
vt 0.0811 0.1236 1.0000
vt 0.0920 0.1236 1.0000
vt 0.1029 0.1236 1.0000
vt 0.1138 0.1236 1.0000
vt 0.1247 0.1236 1.0000
vt 0.1356 0.1236 1.0000
vt 0.1465 0.1236 1.0000
vt 0.1574 0.1236 1.0000
vt 0.1683 0.1236 1.0000
vt 0.1792 0.1236 1.0000
vt 0.1901 0.1236 1.0000
vt 0.2011 0.1242 1.0000
vt 0.2120 0.1242 1.0000
vt 0.2229 0.1242 1.0000
vt 0.2338 0.1242 1.0000
vt 0.2447 0.1242 1.0000
vt 0.0592 0.1242 1.0000
vt 0.0702 0.1242 1.0000
vt 0.0811 0.1242 1.0000
vt 0.0920 0.1242 1.0000
vt 0.1029 0.1242 1.0000
vt 0.1138 0.1242 1.0000
vt 0.1247 0.1242 1.0000
vt 0.1356 0.1242 1.0000
vt 0.1465 0.1242 1.0000
vt 0.1574 0.1242 1.0000
vt 0.1683 0.1242 1.0000
vt 0.1792 0.1242 1.0000
vt 0.1901 0.1242 1.0000
vt 0.0483 0.1211 1.0000
vt 0.0483 0.1217 1.0000
vt 0.0483 0.1217 1.0000
vt 0.0483 0.1224 1.0000
vt 0.0483 0.1224 1.0000
vt 0.0483 0.1230 1.0000
vt 0.0483 0.1230 1.0000
vt 0.0483 0.1236 1.0000
vt 0.0483 0.1236 1.0000
vt 0.0483 0.1242 1.0000
vt 0.0850 0.1519 0.0000
vt 0.1163 0.1519 0.0000
vt 0.1144 0.1412 0.0000
vt 0.1090 0.1318 0.0000
vt 0.1007 0.1248 0.0000
vt 0.0905 0.1211 0.0000
vt 0.0796 0.1211 0.0000
vt 0.0694 0.1248 0.0000
vt 0.0611 0.1318 0.0000
vt 0.0557 0.1412 0.0000
vt 0.0538 0.1519 0.0000
vt 0.0557 0.1626 0.0000
vt 0.0611 0.1720 0.0000
vt 0.0694 0.1789 0.0000
vt 0.0796 0.1827 0.0000
vt 0.0905 0.1827 0.0000
vt 0.1007 0.1789 0.0000
vt 0.1090 0.1720 0.0000
vt 0.1144 0.1626 0.0000
vt 0.1163 0.1519 0.0000
vt 0.1144 0.1626 0.0000
vt 0.1090 0.1720 0.0000
vt 0.1007 0.1789 0.0000
vt 0.0905 0.1827 0.0000
vt 0.0796 0.1827 0.0000
vt 0.0694 0.1789 0.0000
vt 0.0611 0.1720 0.0000
vt 0.0557 0.1626 0.0000
vt 0.0538 0.1519 0.0000
vt 0.0557 0.1412 0.0000
vt 0.0611 0.1318 0.0000
vt 0.0694 0.1248 0.0000
vt 0.0796 0.1211 0.0000
vt 0.0905 0.1211 0.0000
vt 0.1007 0.1248 0.0000
vt 0.1090 0.1318 0.0000
vt 0.1144 0.1412 0.0000
vt 0.0850 0.1519 0.0000
# 156 texture coords

g Cylinder01
usemtl Material__814
f 1/119/1 4/122/2 3/121/3 2/120/4 
f 1/119/5 6/124/6 5/123/7 4/122/8 
f 1/119/9 8/126/10 7/125/11 6/124/12 
f 1/119/13 10/128/14 9/127/15 8/126/16 
f 1/119/17 12/130/18 11/129/19 10/128/20 
f 1/119/21 14/132/22 13/131/23 12/130/24 
f 1/119/25 16/134/26 15/133/27 14/132/28 
f 1/119/29 18/136/30 17/135/31 16/134/32 
f 1/119/33 2/120/34 19/137/35 18/136/36 
f 2/1/37 3/2/38 21/20/39 20/19/40 
f 3/2/41 4/3/42 22/21/43 21/20/44 
f 4/3/45 5/4/46 23/22/47 22/21/48 
f 5/4/49 6/5/50 24/23/51 23/22/52 
f 6/109/53 7/6/54 25/24/55 24/110/56 
f 7/6/57 8/7/58 26/25/59 25/24/60 
f 8/7/61 9/8/62 27/26/63 26/25/64 
f 9/8/65 10/9/66 28/27/67 27/26/68 
f 10/9/69 11/10/70 29/28/71 28/27/72 
f 11/10/73 12/11/74 30/29/75 29/28/76 
f 12/11/77 13/12/78 31/30/79 30/29/80 
f 13/12/81 14/13/82 32/31/83 31/30/84 
f 14/13/85 15/14/86 33/32/87 32/31/88 
f 15/14/89 16/15/90 34/33/91 33/32/92 
f 16/15/93 17/16/94 35/34/95 34/33/96 
f 17/16/97 18/17/98 36/35/99 35/34/100 
f 18/17/101 19/18/102 37/36/103 36/35/104 
f 19/18/105 2/1/106 20/19/107 37/36/108 
f 20/19/109 21/20/110 39/38/111 38/37/112 
f 21/20/113 22/21/114 40/39/115 39/38/116 
f 22/21/117 23/22/118 41/40/119 40/39/120 
f 23/22/121 24/23/122 42/41/123 41/40/124 
f 24/111/125 25/24/126 43/42/127 42/112/128 
f 25/24/129 26/25/130 44/43/131 43/42/132 
f 26/25/133 27/26/134 45/44/135 44/43/136 
f 27/26/137 28/27/138 46/45/139 45/44/140 
f 28/27/141 29/28/142 47/46/143 46/45/144 
f 29/28/145 30/29/146 48/47/147 47/46/148 
f 30/29/149 31/30/150 49/48/151 48/47/152 
f 31/30/153 32/31/154 50/49/155 49/48/156 
f 32/31/157 33/32/158 51/50/159 50/49/160 
f 33/32/161 34/33/162 52/51/163 51/50/164 
f 34/33/165 35/34/166 53/52/167 52/51/168 
f 35/34/169 36/35/170 54/53/171 53/52/172 
f 36/35/173 37/36/174 55/54/175 54/53/176 
f 37/36/177 20/19/178 38/37/179 55/54/180 
f 38/37/181 39/38/182 57/56/183 56/55/184 
f 39/38/185 40/39/186 58/57/187 57/56/188 
f 40/39/189 41/40/190 59/58/191 58/57/192 
f 41/40/193 42/41/194 60/59/195 59/58/196 
f 42/113/197 43/42/198 61/60/199 60/114/200 
f 43/42/201 44/43/202 62/61/203 61/60/204 
f 44/43/205 45/44/206 63/62/207 62/61/208 
f 45/44/209 46/45/210 64/63/211 63/62/212 
f 46/45/213 47/46/214 65/64/215 64/63/216 
f 47/46/217 48/47/218 66/65/219 65/64/220 
f 48/47/221 49/48/222 67/66/223 66/65/224 
f 49/48/225 50/49/226 68/67/227 67/66/228 
f 50/49/229 51/50/230 69/68/231 68/67/232 
f 51/50/233 52/51/234 70/69/235 69/68/236 
f 52/51/237 53/52/238 71/70/239 70/69/240 
f 53/52/241 54/53/242 72/71/243 71/70/244 
f 54/53/245 55/54/246 73/72/247 72/71/248 
f 55/54/249 38/37/250 56/55/251 73/72/252 
f 56/55/253 57/56/254 75/74/255 74/73/256 
f 57/56/257 58/57/258 76/75/259 75/74/260 
f 58/57/261 59/58/262 77/76/263 76/75/264 
f 59/58/265 60/59/266 78/77/267 77/76/268 
f 60/115/269 61/60/270 79/78/271 78/116/272 
f 61/60/273 62/61/274 80/79/275 79/78/276 
f 62/61/277 63/62/278 81/80/279 80/79/280 
f 63/62/281 64/63/282 82/81/283 81/80/284 
f 64/63/285 65/64/286 83/82/287 82/81/288 
f 65/64/289 66/65/290 84/83/291 83/82/292 
f 66/65/293 67/66/294 85/84/295 84/83/296 
f 67/66/297 68/67/298 86/85/299 85/84/300 
f 68/67/301 69/68/302 87/86/303 86/85/304 
f 69/68/305 70/69/306 88/87/307 87/86/308 
f 70/69/309 71/70/310 89/88/311 88/87/312 
f 71/70/313 72/71/314 90/89/315 89/88/316 
f 72/71/317 73/72/318 91/90/319 90/89/320 
f 73/72/321 56/55/322 74/73/323 91/90/324 
f 74/73/325 75/74/326 93/92/327 92/91/328 
f 75/74/329 76/75/330 94/93/331 93/92/332 
f 76/75/333 77/76/334 95/94/335 94/93/336 
f 77/76/337 78/77/338 96/95/339 95/94/340 
f 78/117/341 79/78/342 97/96/343 96/118/344 
f 79/78/345 80/79/346 98/97/347 97/96/348 
f 80/79/349 81/80/350 99/98/351 98/97/352 
f 81/80/353 82/81/354 100/99/355 99/98/356 
f 82/81/357 83/82/358 101/100/359 100/99/360 
f 83/82/361 84/83/362 102/101/363 101/100/364 
f 84/83/365 85/84/366 103/102/367 102/101/368 
f 85/84/369 86/85/370 104/103/371 103/102/372 
f 86/85/373 87/86/374 105/104/375 104/103/376 
f 87/86/377 88/87/378 106/105/379 105/104/380 
f 88/87/381 89/88/382 107/106/383 106/105/384 
f 89/88/385 90/89/386 108/107/387 107/106/388 
f 90/89/389 91/90/390 109/108/391 108/107/392 
f 91/90/393 74/73/394 92/91/395 109/108/396 
f 110/156/397 109/155/398 92/138/399 93/139/400 
f 110/156/401 93/139/402 94/140/403 95/141/404 
f 110/156/405 95/141/406 96/142/407 97/143/408 
f 110/156/409 97/143/410 98/144/411 99/145/412 
f 110/156/413 99/145/414 100/146/415 101/147/416 
f 110/156/417 101/147/418 102/148/419 103/149/420 
f 110/156/421 103/149/422 104/150/423 105/151/424 
f 110/156/425 105/151/426 106/152/427 107/153/428 
f 110/156/429 107/153/430 108/154/431 109/155/432 
# 108 polygons

