# Blender v2.70 (sub 0) OBJ File: ''
# www.blender.org
o Cube.003
v -1.267172 0.100150 3.199376
v -1.267172 0.000876 3.199376
v -1.594976 0.000876 3.607694
v 1.481438 0.100151 0.697007
v 1.481438 0.000878 0.697007
v 1.645179 0.000878 0.277670
v 3.135826 0.000883 -7.161835
v 3.135827 0.100156 -7.161834
v 3.135824 0.100154 -2.679335
v -3.198920 0.100154 -2.679336
v -3.198918 0.100156 -7.161835
v -3.198917 0.000883 -7.161835
v -0.227859 0.100149 4.207458
v -0.227859 0.000876 4.207458
v -0.100061 0.000876 4.135571
v -1.261421 0.100150 2.026182
v -1.261421 0.000877 2.026182
v -1.307429 0.000877 2.342485
v 1.313704 0.100150 2.669888
v 1.245811 0.100150 3.025326
v 1.245811 0.000877 3.025326
v -0.605813 0.100149 4.539349
v -0.605813 0.000876 4.539349
v -0.591284 0.000875 4.644765
v 2.092471 0.100153 -1.303829
v 2.092471 0.000879 -1.303829
v 2.487846 0.000879 -1.475557
v 1.541343 0.100149 4.390255
v 1.541343 0.000876 4.390255
v 1.521375 0.000876 4.035728
v -1.497210 0.100151 0.525184
v -1.497210 0.000878 0.525184
v -1.468456 0.000878 1.238302
v -1.594976 0.100149 3.607694
v -1.756003 0.000876 4.390255
v 1.645179 0.100152 0.277670
v 1.645179 0.000879 -0.944397
v -0.100061 0.100149 4.135571
v 0.530941 0.000876 4.135571
v -1.307429 0.100150 2.342485
v -1.088893 0.000877 2.814063
v 1.313704 0.000877 2.669888
v 1.373609 0.000877 2.034892
v 2.487846 0.100153 -1.475557
v 2.683537 0.000880 -1.846970
v -0.591284 0.100149 4.644765
v -0.092074 0.000875 4.644765
v -1.468456 0.100151 1.238302
v -1.267173 0.000877 1.784642
v 1.521375 0.100149 4.035728
v 1.273767 0.000876 3.440669
v -1.756003 0.100149 4.390255
v -0.703579 0.000876 4.390255
v 1.645179 0.100152 -0.944397
v 1.796939 0.000879 -1.223955
v 0.530941 0.100149 4.135571
v 0.582859 0.000876 4.390255
v -1.819264 0.100153 -1.200102
v -1.819264 0.000879 -1.200102
v -1.790509 0.000878 0.013349
v -2.894691 0.100153 -2.229522
v -2.894691 0.000880 -2.229522
v -2.359853 0.000880 -1.907469
v -1.088893 0.100150 2.814063
v 1.373609 0.100150 2.034892
v -2.359853 0.100153 -1.907469
v -0.092074 0.100149 4.644765
v 2.683537 0.100153 -1.846970
v 2.727467 0.000880 -2.218383
v 1.273767 0.100150 3.440669
v -1.267173 0.100151 1.784642
v 1.796939 0.100153 -1.223955
v -0.703579 0.100149 4.390255
v -1.790509 0.100152 0.013349
v 0.582859 0.100149 4.390255
v 2.727467 0.100153 -2.218383
v 3.135826 0.000880 -2.679336
v -3.198918 0.000880 -2.679336
vt 0.447999 0.064729
vt 0.447999 0.065187
vt 0.448298 0.065187
vt 0.449097 0.064729
vt 0.449097 0.065187
vt 0.448790 0.065187
vt 0.447734 0.065187
vt 0.447734 0.064729
vt 0.451021 0.064729
vt 0.448088 0.064729
vt 0.444801 0.064729
vt 0.444801 0.065187
vt 0.448802 0.065187
vt 0.453447 0.065187
vt 0.453447 0.064729
vt 0.448335 0.064729
vt 0.448335 0.065187
vt 0.448242 0.065187
vt 0.448605 0.064729
vt 0.448605 0.065187
vt 0.448837 0.065187
vt 0.449077 0.064729
vt 0.449338 0.064729
vt 0.449338 0.065187
vt 0.448981 0.064729
vt 0.448981 0.065187
vt 0.449054 0.065187
vt 0.448100 0.064729
vt 0.448100 0.065187
vt 0.447811 0.065187
vt 0.448882 0.064729
vt 0.448882 0.065187
vt 0.448612 0.065187
vt 0.447505 0.064729
vt 0.447505 0.065187
vt 0.448027 0.065187
vt 0.448298 0.064729
vt 0.448876 0.065187
vt 0.448790 0.064729
vt 0.447893 0.065187
vt 0.448242 0.064729
vt 0.447779 0.065187
vt 0.447371 0.064729
vt 0.447371 0.065187
vt 0.447716 0.065187
vt 0.449077 0.065187
vt 0.448970 0.064729
vt 0.448970 0.065187
vt 0.448698 0.065187
vt 0.448602 0.064729
vt 0.448602 0.065187
vt 0.448236 0.065187
vt 0.448027 0.064729
vt 0.448428 0.065187
vt 0.448612 0.064729
vt 0.448176 0.065187
vt 0.449456 0.064729
vt 0.449456 0.065187
vt 0.448684 0.065187
vt 0.447893 0.064729
vt 0.447689 0.065187
vt 0.448703 0.064729
vt 0.448703 0.065187
vt 0.448846 0.065187
vt 0.447706 0.064729
vt 0.447706 0.065187
vt 0.448596 0.065187
vt 0.448824 0.064729
vt 0.448824 0.065187
vt 0.448432 0.065187
vt 0.447716 0.064729
vt 0.447631 0.065187
vt 0.447187 0.064729
vt 0.447187 0.065187
vt 0.449063 0.064729
vt 0.449063 0.065187
vt 0.448738 0.065187
vt 0.448698 0.064729
vt 0.448426 0.065187
vt 0.448176 0.064729
vt 0.447871 0.065187
vt 0.448428 0.064729
vt 0.448317 0.064729
vt 0.448317 0.065187
vt 0.448884 0.064729
vt 0.448884 0.065187
vt 0.448596 0.064729
vt 0.448971 0.065187
vt 0.449207 0.064729
vt 0.449207 0.065187
vt 0.448505 0.065187
vt 0.448418 0.065187
vt 0.448418 0.064729
vt 0.448426 0.064729
vt 0.448088 0.065187
vt 0.886828 0.508343
vt 0.898101 0.529109
vt 0.629495 0.527337
vt 0.147579 0.243936
vt 0.152622 0.217535
vt 0.326041 0.233227
vt 0.451021 0.065187
vt 0.448802 0.064729
vt 0.448837 0.064729
vt 0.449054 0.064729
vt 0.447811 0.064729
vt 0.448876 0.064729
vt 0.447779 0.064729
vt 0.448236 0.064729
vt 0.448684 0.064729
vt 0.447689 0.064729
vt 0.448846 0.064729
vt 0.448432 0.064729
vt 0.447631 0.064729
vt 0.448738 0.064729
vt 0.447871 0.064729
vt 0.448971 0.064729
vt 0.448505 0.064729
vt 0.527016 0.637212
vt 0.549613 0.603801
vt 0.589340 0.579879
vt 0.653416 0.399185
vt 0.631630 0.437203
vt 0.670503 0.305634
vt 0.874666 0.386422
vt 0.655552 0.346216
vt 0.670930 0.287693
vt 0.667513 0.264199
vt 0.683746 0.229171
vt 0.634194 0.111698
vt 0.712366 0.110844
vt 0.646154 0.170221
vt 0.719628 0.101019
vt 0.720707 0.093634
vt 0.757788 0.092744
vt 0.879116 0.111136
vt 0.877632 0.138427
vt 0.807921 0.114695
vt 0.859240 0.182627
vt 0.804064 0.129231
vt 0.866656 0.287046
vt 0.862207 0.239880
vt 0.886828 0.417570
vt 0.857164 0.213478
vt 0.757194 0.132791
vt 0.967219 0.602973
vt 0.920053 0.535041
vt 0.963956 0.575385
vt 0.997551 0.637212
vt 0.997551 0.970165
vt 0.527016 0.970166
vt 0.747702 0.125671
vt 0.949420 0.547797
vt 0.670503 0.200550
vt 0.012235 0.974222
vt 0.012235 0.641269
vt 0.042567 0.607030
vt 0.060366 0.551854
vt 0.089734 0.539098
vt 0.045830 0.579442
vt 0.111685 0.533165
vt 0.135120 0.390479
vt 0.356370 0.403242
vt 0.122958 0.421627
vt 0.122958 0.512400
vt 0.378156 0.441260
vt 0.290158 0.105076
vt 0.262084 0.129728
vt 0.251998 0.096800
vt 0.205722 0.133288
vt 0.132154 0.142484
vt 0.201865 0.118752
vt 0.289079 0.097690
vt 0.297420 0.114900
vt 0.375593 0.115755
vt 0.363632 0.174277
vt 0.342273 0.268255
vt 0.338856 0.291750
vt 0.354234 0.350272
vt 0.380291 0.531393
vt 0.420446 0.583936
vt 0.460173 0.607857
vt 0.482770 0.641269
vt 0.482770 0.974222
vt 0.143130 0.291103
vt 0.339283 0.204607
vt 0.130671 0.115192
vt 0.339283 0.309691
vt 0.150546 0.186684
vt 0.252592 0.136847
vn -0.779797 0.000000 -0.626033
vn 0.931504 0.000000 0.363730
vn 1.000000 -0.000009 0.000001
vn -1.000000 -0.000013 -0.000000
vn 0.000000 0.000000 -1.000000
vn 0.490265 0.000000 0.871573
vn -0.989586 0.000000 -0.143941
vn 0.982242 0.000000 0.187620
vn -0.990635 0.000000 0.136534
vn 0.398386 0.000000 0.917218
vn 0.998418 0.000000 -0.056234
vn -0.999188 0.000000 0.040289
vn -0.979479 0.000000 -0.201547
vn 1.000000 0.000004 0.000000
vn 0.000000 0.000000 1.000000
vn -0.907311 0.000000 0.420461
vn 0.995579 0.000000 0.093922
vn 0.884712 0.000000 0.466139
vn 0.000001 0.000000 1.000000
vn -0.938343 -0.000002 0.345705
vn 0.923261 0.000000 -0.384174
vn -0.000001 0.000000 1.000000
vn 0.878853 0.000000 0.477092
vn -0.979848 0.000000 0.199744
vn -0.999719 0.000000 0.023690
vn -0.515850 0.000000 0.856679
vn -0.907563 0.000000 -0.419917
vn 0.996768 0.000000 0.080336
vn -0.794541 0.000000 0.607210
vn 0.955022 0.000000 -0.296536
vn 0.993078 0.000000 0.117460
vn 0.997742 0.000000 -0.067156
vn -0.999717 0.000000 0.023807
vn 0.260911 0.000000 0.965363
vn -0.836245 0.000000 0.548357
vn -0.867642 0.000000 0.497189
vn -0.828332 0.000000 0.560237
vn 0.748519 0.000000 0.663113
vn 0.000000 1.000000 0.000001
vn -0.000000 -1.000000 -0.000001
vn 1.000000 0.000017 0.000000
vn -1.000000 -0.000017 -0.000000
vn 0.000000 0.000010 -1.000000
vn 0.490262 0.000000 0.871575
vn 1.000000 0.000000 0.000000
vn -0.907310 0.000000 0.420462
vn 0.995580 0.000002 0.093922
vn -0.938343 0.000002 0.345705
vn 0.923260 0.000000 -0.384175
vn 0.996768 0.000002 0.080336
vn 0.955022 0.000000 -0.296537
vn 0.260910 0.000000 0.965363
vn -0.836245 0.000000 0.548355
vn -0.828334 -0.000013 0.560235
vn 0.748520 0.000008 0.663112
vn -0.000000 1.000000 0.000000
s off
f 1/1/1 2/2/1 3/3/1
f 4/4/2 5/5/2 6/6/2
f 7/7/3 8/8/3 9/9/3
f 10/10/4 11/11/4 12/12/4
f 7/13/5 12/14/5 11/15/5
f 13/16/6 14/17/6 15/18/6
f 16/19/7 17/20/7 18/21/7
f 19/22/8 20/23/8 21/24/8
f 22/25/9 23/26/9 24/27/9
f 25/28/10 26/29/10 27/30/10
f 28/31/11 29/32/11 30/33/11
f 31/34/12 32/35/12 33/36/12
f 34/37/13 3/3/13 35/38/13
f 36/39/14 6/6/14 37/40/14
f 38/41/15 15/18/15 39/42/15
f 40/43/16 18/44/16 41/45/16
f 19/22/17 42/46/17 43/33/17
f 44/47/18 27/48/18 45/49/18
f 46/50/19 24/51/19 47/52/19
f 48/53/20 33/36/20 49/54/20
f 50/55/21 30/33/21 51/56/21
f 52/57/22 35/58/22 53/59/22
f 54/60/23 37/40/23 55/61/23
f 56/62/24 39/63/24 57/64/24
f 58/65/25 59/66/25 60/67/25
f 61/68/26 62/69/26 63/70/26
f 64/71/27 41/45/27 2/2/27
f 65/55/28 43/33/28 5/72/28
f 66/73/29 63/74/29 59/66/29
f 67/75/30 47/76/30 14/77/30
f 68/78/31 45/49/31 69/79/31
f 70/80/32 51/56/32 21/81/32
f 71/82/33 49/54/33 17/20/33
f 72/83/34 55/84/34 26/29/34
f 73/85/35 53/86/35 23/26/35
f 74/87/36 60/67/36 32/88/36
f 75/89/22 57/90/22 29/91/22
f 62/92/37 61/93/37 10/10/37
f 76/94/38 69/79/38 77/95/38
f 54/96/39 72/97/39 58/98/39
f 42/99/40 21/100/40 41/101/40
f 34/37/1 1/1/1 3/3/1
f 36/39/2 4/4/2 6/6/2
f 77/102/41 7/7/41 9/9/41
f 78/95/42 10/10/42 12/12/42
f 8/103/43 7/13/43 11/15/43
f 38/41/44 13/16/44 15/18/44
f 40/104/7 16/19/7 18/21/7
f 42/46/8 19/22/8 21/24/8
f 46/105/9 22/25/9 24/27/9
f 44/106/10 25/28/10 27/30/10
f 50/55/11 28/31/11 30/33/11
f 48/53/12 31/34/12 33/36/12
f 52/107/13 34/37/13 35/38/13
f 54/60/45 36/39/45 37/40/45
f 56/108/15 38/41/15 39/42/15
f 64/71/46 40/43/46 41/45/46
f 65/55/47 19/22/47 43/33/47
f 68/78/18 44/47/18 45/49/18
f 67/109/15 46/50/15 47/52/15
f 71/82/48 48/53/48 49/54/48
f 70/80/49 50/55/49 51/56/49
f 73/110/15 52/57/15 53/59/15
f 72/111/23 54/60/23 55/61/23
f 75/112/24 56/62/24 57/64/24
f 74/87/25 58/65/25 60/67/25
f 66/113/26 61/68/26 63/70/26
f 1/1/27 64/71/27 2/2/27
f 4/114/50 65/55/50 5/72/50
f 58/65/29 66/73/29 59/66/29
f 13/115/51 67/75/51 14/77/51
f 76/94/31 68/78/31 69/79/31
f 20/116/32 70/80/32 21/81/32
f 16/19/33 71/82/33 17/20/33
f 25/28/52 72/83/52 26/29/52
f 22/25/53 73/85/53 23/26/53
f 31/117/36 74/87/36 32/88/36
f 28/118/19 75/89/19 29/91/19
f 78/95/54 62/92/54 10/10/54
f 9/10/55 76/94/55 77/95/55
f 10/119/39 61/120/39 66/121/39
f 31/122/39 54/96/39 74/123/39
f 71/124/39 4/125/39 48/126/39
f 16/127/39 40/128/39 64/129/39
f 52/130/39 73/131/39 34/132/39
f 22/133/39 46/134/39 67/135/39
f 28/136/39 50/137/39 75/138/39
f 70/139/39 56/140/39 50/137/39
f 65/141/39 64/129/39 19/142/39
f 54/96/39 31/122/39 36/143/39
f 20/144/39 38/145/39 56/140/39
f 76/146/39 25/147/39 68/148/39
f 76/146/39 9/149/39 8/150/39
f 10/119/39 66/121/39 11/151/39
f 64/129/39 65/141/39 16/127/39
f 54/96/39 58/98/39 74/123/39
f 67/135/39 13/152/39 22/133/39
f 25/147/39 44/153/39 68/148/39
f 4/125/39 71/124/39 65/141/39
f 31/122/39 4/125/39 36/143/39
f 76/146/39 72/97/39 25/147/39
f 73/131/39 1/154/39 34/132/39
f 66/121/39 76/146/39 8/150/39
f 70/139/39 20/144/39 56/140/39
f 65/141/39 71/124/39 16/127/39
f 66/121/39 8/150/39 11/151/39
f 4/125/39 31/122/39 48/126/39
f 38/145/39 1/154/39 13/152/39
f 50/137/56 56/140/56 75/138/56
f 13/152/39 73/131/39 22/133/39
f 64/129/39 1/154/39 38/145/39
f 20/144/39 64/129/39 38/145/39
f 66/121/39 72/97/39 76/146/39
f 72/97/39 66/121/39 58/98/39
f 64/129/39 20/144/39 19/142/39
f 7/155/40 77/156/40 69/157/40
f 1/154/39 73/131/39 13/152/39
f 27/158/40 26/159/40 45/160/40
f 55/161/40 69/157/40 26/159/40
f 5/162/40 32/163/40 6/164/40
f 37/165/40 32/163/40 60/166/40
f 23/167/40 14/168/40 47/169/40
f 39/170/40 30/171/40 57/172/40
f 24/173/40 23/167/40 47/169/40
f 53/174/40 35/175/40 3/176/40
f 41/101/40 18/177/40 17/178/40
f 32/163/40 5/162/40 33/179/40
f 59/180/40 37/165/40 60/166/40
f 63/181/40 62/182/40 78/183/40
f 7/155/40 63/181/40 12/184/40
f 32/163/40 37/165/40 6/164/40
f 63/181/40 78/183/40 12/184/40
f 26/159/40 69/157/40 45/160/40
f 43/185/40 42/99/40 41/101/40
f 53/174/40 3/176/40 2/186/40
f 30/171/40 29/187/40 57/172/40
f 17/178/40 49/188/40 43/185/40
f 49/188/40 5/162/40 43/185/40
f 21/100/40 51/189/40 39/170/40
f 14/168/40 23/167/40 53/174/40
f 41/101/40 15/190/40 2/186/40
f 39/170/40 51/189/40 30/171/40
f 37/165/40 59/180/40 55/161/40
f 39/170/40 15/190/40 21/100/40
f 53/174/40 2/186/40 14/168/40
f 63/181/40 7/155/40 69/157/40
f 55/161/40 59/180/40 63/181/40
f 15/190/40 41/101/40 21/100/40
f 2/186/40 15/190/40 14/168/40
f 55/161/40 63/181/40 69/157/40
f 17/178/40 43/185/40 41/101/40
f 5/162/40 49/188/40 33/179/40
