# Blender v2.70 (sub 0) OBJ File: ''
# www.blender.org
o Cube.004
v -1.804545 0.099902 4.281386
v -1.648719 0.099902 4.730550
v -1.648718 0.000994 4.730550
v -1.054293 0.000994 4.281386
v -1.054293 0.099902 4.281386
v -2.221674 0.099902 4.730550
v -1.053436 0.000994 4.535079
v -2.288799 0.099902 4.535079
v -2.288798 0.000994 4.535079
v -3.374774 0.099902 4.535079
v -3.374774 0.000994 4.535079
v -3.372377 0.099902 1.265255
v -3.616901 0.099902 1.011141
v -3.616901 0.000994 1.011142
v -5.303340 0.099902 0.975183
v -5.303340 0.000994 0.975183
v -5.303340 0.099902 -0.065246
v -5.062471 0.099902 -0.082026
v -5.062471 0.000994 -0.082026
v -5.062471 0.099902 -0.849162
v -5.062471 0.000994 -0.849161
v -5.517959 0.099902 -0.719708
v -5.517959 0.000994 -0.719708
v -5.517959 0.099902 -1.251909
v -5.303340 0.099902 -1.326225
v -5.303340 0.000994 -1.326224
v -5.303340 0.099902 -2.424623
v -3.559691 0.099902 -2.386813
v -3.559691 0.000994 -2.386813
v -3.295016 0.099902 -2.710907
v -3.295016 0.000994 -2.710906
v -3.262607 0.099902 -3.591357
v -3.262606 0.000994 -3.591357
v -2.873695 0.099902 -3.937056
v -2.873695 0.000994 -3.937055
v -1.993243 0.099902 -3.980268
v -1.993244 0.000994 -3.980268
v -1.750174 0.099902 -4.288157
v -1.760977 0.099902 -5.845150
v -1.760978 0.000994 -5.845150
v -0.710377 0.099902 -5.845150
v -0.710378 0.000994 -5.845150
v -0.667165 0.099902 -5.608832
v 0.078247 0.099902 -5.608832
v 0.078248 0.000994 -5.608832
v 0.059342 0.099902 -5.730367
v 0.059343 0.000994 -5.730367
v -0.072997 0.099902 -6.082819
v -0.072996 0.000994 -6.082819
v 0.513070 0.099902 -6.082819
v 0.513071 0.000994 -6.082819
v 0.553583 0.099902 -5.845150
v 1.669001 0.099902 -5.845150
v 1.669002 0.000994 -5.845150
v 1.628491 0.099902 -4.204432
v 1.847253 0.099902 -3.888442
v 1.847253 0.000994 -3.888442
v 3.208440 0.099902 -3.796615
v 3.208441 0.000994 -3.796615
v 5.093579 0.099902 -3.745300
v 5.093579 0.000994 -3.745300
v 5.093579 0.099902 -2.746015
v 5.093579 0.000994 -2.746015
v 4.831604 0.099902 -2.697401
v 4.831604 0.099902 -1.946586
v 4.831604 0.000994 -1.946586
v 5.328546 0.099902 -2.087027
v 5.328546 0.000994 -2.087027
v 5.328546 0.099902 -1.536069
v 5.093579 0.099902 -1.473953
v 5.093579 0.000994 -1.473953
v 5.093579 0.099902 -0.361234
v 5.093579 0.000994 -0.361233
v 3.716186 0.099902 -0.372039
v 3.716186 0.000994 -0.372037
v 3.130119 0.099902 -0.158677
v 3.130118 0.000994 -0.158677
v 3.162529 0.099902 0.613743
v 3.162527 0.000994 0.613743
v 2.965373 0.099902 0.983748
v 2.965372 0.000994 0.983749
v 1.898567 0.099902 1.704855
v 1.898567 0.000994 1.704855
v 1.366516 0.099902 2.555598
v 0.664315 0.099902 2.674432
v 0.664315 0.000994 2.674432
v 0.264601 0.099902 2.663629
v 0.264601 0.000994 2.663628
v 0.102820 0.000994 2.558897
v 0.049020 0.000994 4.535079
v 0.102822 0.099902 2.558897
v 0.049020 0.098945 4.535079
v -1.053436 0.098945 4.535079
v -1.750175 0.000994 -4.288157
v -1.804544 0.000994 4.281386
v -2.221673 0.000994 4.730550
v -3.372378 0.000994 1.265255
v -5.303340 0.000994 -0.065246
v -5.517959 0.000994 -1.251908
v -5.303340 0.000994 -2.424624
v -0.667166 0.000994 -5.608832
v 0.553584 0.000994 -5.845150
v 1.628491 0.000994 -4.204432
v 4.831604 0.000994 -2.697401
v 5.328546 0.000994 -1.536070
v 1.366516 0.000994 2.555597
vt 0.775621 0.973337
vt 0.785473 0.973337
vt 0.785473 0.961887
vt 0.787735 0.973337
vt 0.787735 0.961887
vt 0.776079 0.973337
vt 0.792368 0.961887
vt 0.771725 0.973337
vt 0.771725 0.961887
vt 0.754006 0.973337
vt 0.791391 0.961887
vt 0.791391 0.973337
vt 0.842791 0.973337
vt 0.747737 0.973337
vt 0.739794 0.973337
vt 0.739794 0.961887
vt 0.784850 0.961887
vt 0.784850 0.973337
vt 0.756973 0.973337
vt 0.771157 0.961887
vt 0.771157 0.973337
vt 0.788266 0.973337
vt 0.792543 0.973337
vt 0.792543 0.961887
vt 0.789732 0.961887
vt 0.789732 0.973337
vt 0.776977 0.973337
vt 0.759173 0.961887
vt 0.759173 0.973337
vt 0.750390 0.973337
vt 0.772318 0.961887
vt 0.772318 0.973337
vt 0.763306 0.973337
vt 0.758333 0.973337
vt 0.763221 0.973337
vt 0.763221 0.961887
vt 0.781027 0.973337
vt 0.748639 0.973337
vt 0.776689 0.973337
vt 0.776689 0.961887
vt 0.762817 0.973337
vt 0.772196 0.973337
vt 0.772196 0.961887
vt 0.786737 0.973337
vt 0.786737 0.961887
vt 0.798439 0.973337
vt 0.753384 0.961887
vt 0.753384 0.973337
vt 0.768097 0.973337
vt 0.768097 0.961887
vt 0.776874 0.973337
vt 0.775226 0.973337
vt 0.750015 0.973337
vt 0.750015 0.961887
vt 0.766880 0.973337
vt 0.766880 0.961887
vt 0.771698 0.973337
vt 0.769850 0.973337
vt 0.782240 0.973337
vt 0.782240 0.961887
vt 0.783056 0.973337
vt 0.781077 0.973337
vt 0.781077 0.961887
vt 0.773677 0.973337
vt 0.773677 0.961887
vt 0.786800 0.973337
vt 0.796781 0.973337
vt 0.796781 0.961887
vt 0.782368 0.961887
vt 0.782368 0.973337
vt 0.787272 0.973337
vt 0.805083 0.973337
vt 0.805083 0.961887
vt 0.765837 0.961887
vt 0.765837 0.973337
vt 0.739250 0.973337
vt 0.785325 0.973337
vt 0.793843 0.973337
vt 0.793843 0.961887
vt 0.748788 0.973337
vt 0.771933 0.973337
vt 0.771933 0.961887
vt 0.802737 0.973337
vt 0.802737 0.961887
vt 0.757682 0.973337
vt 0.773858 0.973337
vt 0.773858 0.961887
vt 0.771430 0.961887
vt 0.771430 0.973337
vt 0.766095 0.973337
vt 0.770072 0.973337
vt 0.782376 0.973337
vt 0.782376 0.961887
vt 0.754479 0.973337
vt 0.764461 0.973337
vt 0.764461 0.961887
vt 0.755684 0.973337
vt 0.750952 0.973337
vt 0.750952 0.961887
vt 0.733055 0.973337
vt 0.733055 0.961887
vt 0.766404 0.973337
vt 0.744463 0.973337
vt 0.744463 0.961887
vt 0.756513 0.973337
vt 0.743779 0.973337
vt 0.743778 0.961887
vt 0.783581 0.973337
vt 0.796401 0.973337
vt 0.796401 0.961887
vt 0.777046 0.973337
vt 0.768011 0.973337
vt 0.768011 0.961887
vt 0.739531 0.973337
vt 0.739531 0.961887
vt 0.784586 0.961887
vt 0.784586 0.973337
vt 0.762559 0.973337
vt 0.749480 0.973337
vt 0.749480 0.961887
vt 0.789432 0.973337
vt 0.782893 0.973337
vt 0.782893 0.961887
vt 0.778647 0.961887
vt 0.754727 0.961887
vt 0.787432 0.961887
vt 0.787432 0.973337
vt 0.754727 0.973226
vt 0.736873 0.973226
vt 0.736873 0.961887
vt 0.104596 0.609134
vt 0.106884 0.586466
vt 0.254708 0.453066
vt 0.919617 0.735472
vt 0.922113 0.756685
vt 0.768214 0.879804
vt 0.775621 0.961887
vt 0.776079 0.961887
vt 0.792368 0.973226
vt 0.754006 0.961887
vt 0.842791 0.961887
vt 0.747737 0.961887
vt 0.756973 0.961887
vt 0.788266 0.961887
vt 0.776977 0.961887
vt 0.750390 0.961887
vt 0.763306 0.961887
vt 0.758333 0.961887
vt 0.781027 0.961887
vt 0.748639 0.961887
vt 0.762817 0.961887
vt 0.798439 0.961887
vt 0.776874 0.961887
vt 0.775226 0.961887
vt 0.771698 0.961887
vt 0.769850 0.961887
vt 0.783056 0.961887
vt 0.786800 0.961887
vt 0.787272 0.961887
vt 0.739250 0.961887
vt 0.785325 0.961887
vt 0.748788 0.961887
vt 0.757682 0.961887
vt 0.766095 0.961887
vt 0.770072 0.961887
vt 0.754479 0.961887
vt 0.755684 0.961887
vt 0.766404 0.961887
vt 0.756513 0.961887
vt 0.783581 0.961887
vt 0.777046 0.961887
vt 0.762559 0.961887
vt 0.789432 0.961887
vt 0.778647 0.973337
vt 0.460284 0.425992
vt 0.471483 0.414859
vt 0.513223 0.458012
vt 0.438318 0.537060
vt 0.448579 0.539256
vt 0.464385 0.554230
vt 0.486846 0.585842
vt 0.474576 0.639082
vt 0.481231 0.729757
vt 0.450243 0.758249
vt 0.487886 0.707920
vt 0.464593 0.789029
vt 0.517626 0.841230
vt 0.475200 0.884487
vt 0.460642 0.917139
vt 0.447332 0.893014
vt 0.481855 0.895926
vt 0.417592 0.921090
vt 0.426742 0.933984
vt 0.387644 0.971835
vt 0.236657 0.856204
vt 0.175514 0.920466
vt 0.132464 0.877625
vt 0.099605 0.862235
vt 0.117490 0.854540
vt 0.120610 0.886359
vt 0.094822 0.821265
vt 0.083175 0.829583
vt 0.042413 0.789445
vt 0.071945 0.644282
vt 0.073609 0.672566
vt 0.039085 0.521579
vt 0.080628 0.478541
vt 0.096319 0.447528
vt 0.107580 0.468757
vt 0.074536 0.466726
vt 0.138409 0.440513
vt 0.129363 0.430175
vt 0.168130 0.388824
vt 0.421588 0.369625
vt 0.431003 0.397500
vt 0.378760 0.328828
vt 0.454816 0.385686
vt 0.432110 0.364272
vt 0.122274 0.851212
vt 0.103348 0.729342
vt 0.313191 0.901333
vt 0.594458 0.424844
vt 0.570644 0.413030
vt 0.593351 0.391616
vt 0.105844 0.708129
vt 0.235509 0.453435
vt 0.257246 0.852460
vt 0.770753 0.480409
vt 0.646701 0.356172
vt 0.896098 0.457519
vt 0.887052 0.467856
vt 0.857331 0.416168
vt 0.917881 0.496100
vt 0.929141 0.474871
vt 0.950924 0.494070
vt 0.944832 0.505884
vt 0.986376 0.548923
vt 0.918577 0.613809
vt 0.920865 0.636478
vt 0.953516 0.671625
vt 0.951852 0.699909
vt 0.942286 0.856927
vt 0.930639 0.848608
vt 0.983048 0.816789
vt 0.907970 0.881884
vt 0.925856 0.889578
vt 0.904851 0.913703
vt 0.892997 0.904968
vt 0.849947 0.947810
vt 0.788803 0.883547
vt 0.598718 0.961328
vt 0.607869 0.948434
vt 0.637817 0.999179
vt 0.578129 0.920358
vt 0.564819 0.944483
vt 0.543606 0.923270
vt 0.550261 0.911831
vt 0.507835 0.868573
vt 0.560868 0.816373
vt 0.575218 0.785593
vt 0.544230 0.757101
vt 0.537575 0.735264
vt 0.550885 0.666426
vt 0.538615 0.613186
vt 0.561076 0.581574
vt 0.576882 0.566600
vt 0.587143 0.564404
vt 0.553978 0.442202
vt 0.565177 0.453336
vt 0.512238 0.485356
vt 0.603873 0.396969
vt 0.789952 0.480778
vt 0.712270 0.928677
vt 0.903187 0.878556
vn 0.944761 0.000008 -0.327760
vn 0.000000 0.000000 1.000000
vn -0.999994 0.000000 0.003376
vn -0.945789 -0.000006 0.324782
vn -1.000000 0.000000 -0.000733
vn -0.720572 0.000012 0.693380
vn -0.021317 0.000007 0.999773
vn -1.000000 0.000000 0.000000
vn -0.069498 -0.000005 -0.997582
vn 0.273382 0.000005 0.961906
vn -1.000000 0.000009 0.000000
vn -0.327210 -0.000007 -0.944952
vn 0.021680 0.000000 -0.999765
vn -0.774534 -0.000009 -0.632532
vn -0.999323 -0.000011 -0.036785
vn -0.664364 -0.000005 -0.747410
vn -0.049021 -0.000009 -0.998798
vn -0.784883 0.000006 -0.619644
vn -0.999976 0.000009 0.006938
vn 0.000000 0.000000 -1.000000
vn 0.983690 -0.000010 -0.179873
vn -0.988117 -0.000014 0.153705
vn -0.936181 -0.000011 0.351518
vn 0.985781 0.000005 -0.168033
vn 0.999695 0.000012 0.024683
vn 0.822193 0.000000 -0.569208
vn 0.067308 -0.000004 -0.997732
vn 0.027211 0.000000 -0.999630
vn 1.000000 0.000000 0.000000
vn 0.182452 0.000000 0.983215
vn 1.000000 0.000003 0.000000
vn -0.271959 0.000000 -0.962309
vn 0.255583 0.000003 0.966787
vn 1.000000 -0.000002 0.000000
vn -0.007844 0.000014 0.999969
vn 0.342091 0.000006 0.939667
vn 0.999121 -0.000025 -0.041922
vn 0.882531 -0.000005 0.470254
vn 0.560013 0.000000 0.828484
vn 0.847847 0.000000 0.530240
vn 0.166859 0.000000 0.985981
vn -0.027016 -0.000014 0.999635
vn -0.543429 -0.000012 0.839455
vn 0.999630 -0.000014 0.027214
vn -0.000000 1.000000 0.000000
vn 0.000000 -1.000000 -0.000000
vn 0.944761 0.000005 -0.327760
vn -0.945787 -0.000015 0.324787
vn -1.000000 0.000012 -0.000733
vn -0.720573 0.000010 0.693379
vn -0.021318 0.000000 0.999773
vn -1.000000 -0.000009 0.000000
vn -0.069498 -0.000004 -0.997582
vn 0.273382 0.000008 0.961906
vn -0.327209 -0.000005 -0.944952
vn 0.021680 0.000007 -0.999765
vn -0.774533 0.000000 -0.632534
vn -0.999323 0.000000 -0.036785
vn -0.664363 -0.000005 -0.747410
vn -0.049022 -0.000004 -0.998798
vn -0.784885 0.000009 -0.619641
vn -0.999976 0.000015 0.006938
vn 0.983690 -0.000006 -0.179872
vn -0.988117 -0.000010 0.153703
vn -0.936181 -0.000014 0.351519
vn 0.985781 0.000010 -0.168037
vn 0.999695 0.000000 0.024684
vn 0.822192 0.000000 -0.569211
vn 0.067308 0.000000 -0.997732
vn 0.027210 -0.000005 -0.999630
vn 0.182452 0.000002 0.983215
vn -0.271958 0.000007 -0.962309
vn 0.255586 -0.000005 0.966786
vn -0.007844 0.000010 0.999969
vn 0.342090 0.000014 0.939667
vn 0.999121 -0.000006 -0.041920
vn 0.882533 -0.000017 0.470251
vn 0.560013 0.000004 0.828484
vn 0.847847 -0.000007 0.530241
vn 0.166859 -0.000006 0.985981
vn -0.027021 0.000000 0.999635
vn -0.543436 0.000008 0.839450
vn 0.999630 0.000000 0.027215
vn 0.000000 0.999993 0.003772
vn -0.000000 1.000000 -0.000001
vn 0.000751 1.000000 0.000505
s off
f 1/1/1 2/2/1 3/3/1
f 5/4/2 1/1/2 4/5/2
f 3/3/2 2/2/2 6/6/2
f 5/4/3 4/5/3 7/7/3
f 6/6/4 8/8/4 9/9/4
f 9/9/2 8/8/2 10/10/2
f 11/11/5 10/12/5 12/13/5
f 12/14/6 13/15/6 14/16/6
f 14/17/7 13/18/7 15/19/7
f 16/20/8 15/21/8 17/22/8
f 17/22/9 18/23/9 19/24/9
f 19/25/8 18/26/8 20/27/8
f 21/28/10 20/29/10 22/30/10
f 23/31/11 22/32/11 24/33/11
f 24/34/12 25/35/12 26/36/12
f 26/36/8 25/35/8 27/37/8
f 27/38/13 28/39/13 29/40/13
f 28/41/14 30/42/14 31/43/14
f 31/43/15 30/42/15 32/44/15
f 33/45/16 32/44/16 34/46/16
f 35/47/17 34/48/17 36/49/17
f 37/50/18 36/49/18 38/51/18
f 38/52/19 39/53/19 40/54/19
f 40/54/20 39/53/20 41/55/20
f 42/56/21 41/55/21 43/57/21
f 43/58/20 44/59/20 45/60/20
f 44/61/22 46/62/22 47/63/22
f 46/62/23 48/64/23 49/65/23
f 48/66/20 50/67/20 51/68/20
f 51/69/24 50/70/24 52/71/24
f 52/71/20 53/72/20 54/73/20
f 54/74/25 53/75/25 55/76/25
f 55/77/26 56/78/26 57/79/26
f 56/80/27 58/81/27 59/82/27
f 58/81/28 60/83/28 61/84/28
f 60/85/29 62/86/29 63/87/29
f 63/88/30 62/89/30 64/90/30
f 64/91/31 65/92/31 66/93/31
f 65/94/32 67/95/32 68/96/32
f 68/96/29 67/95/29 69/97/29
f 69/97/33 70/98/33 71/99/33
f 70/98/34 72/100/34 73/101/34
f 72/102/35 74/103/35 75/104/35
f 74/105/36 76/106/36 77/107/36
f 76/108/37 78/109/37 79/110/37
f 78/111/38 80/112/38 81/113/38
f 80/112/39 82/114/39 83/115/39
f 83/116/40 82/117/40 84/118/40
f 84/118/41 85/119/41 86/120/41
f 85/121/42 87/122/42 88/123/42
f 89/124/43 88/123/43 87/122/43
f 90/125/44 89/126/44 91/127/44
f 92/128/2 93/129/2 7/130/2
f 30/131/45 28/132/45 12/133/45
f 37/134/46 94/135/46 57/136/46
f 95/137/47 1/1/47 3/3/47
f 4/5/2 1/1/2 95/137/2
f 96/138/2 3/3/2 6/6/2
f 93/139/3 5/4/3 7/7/3
f 96/138/48 6/6/48 9/9/48
f 11/140/2 9/9/2 10/10/2
f 97/141/49 11/11/49 12/13/49
f 97/142/50 12/14/50 14/16/50
f 16/143/51 14/17/51 15/19/51
f 98/144/52 16/20/52 17/22/52
f 98/144/53 17/22/53 19/24/53
f 21/145/8 19/25/8 20/27/8
f 23/146/54 21/28/54 22/30/54
f 99/147/8 23/31/8 24/33/8
f 99/148/55 24/34/55 26/36/55
f 100/149/8 26/36/8 27/37/8
f 100/150/56 27/38/56 29/40/56
f 29/151/57 28/41/57 31/43/57
f 33/45/58 31/43/58 32/44/58
f 35/152/59 33/45/59 34/46/59
f 37/50/60 35/47/60 36/49/60
f 94/153/61 37/50/61 38/51/61
f 94/154/62 38/52/62 40/54/62
f 42/56/20 40/54/20 41/55/20
f 101/155/63 42/56/63 43/57/63
f 101/156/20 43/58/20 45/60/20
f 45/157/64 44/61/64 47/63/64
f 47/63/65 46/62/65 49/65/65
f 49/158/20 48/66/20 51/68/20
f 102/159/66 51/69/66 52/71/66
f 102/159/20 52/71/20 54/73/20
f 103/160/67 54/74/67 55/76/67
f 103/161/68 55/77/68 57/79/68
f 57/162/69 56/80/69 59/82/69
f 59/82/70 58/81/70 61/84/70
f 61/163/29 60/85/29 63/87/29
f 104/164/71 63/88/71 64/90/71
f 104/165/29 64/91/29 66/93/29
f 66/166/72 65/94/72 68/96/72
f 105/167/29 68/96/29 69/97/29
f 105/167/73 69/97/73 71/99/73
f 71/99/29 70/98/29 73/101/29
f 73/168/74 72/102/74 75/104/74
f 75/169/75 74/105/75 77/107/75
f 77/170/76 76/108/76 79/110/76
f 79/171/77 78/111/77 81/113/77
f 81/113/78 80/112/78 83/115/78
f 106/172/79 83/116/79 84/118/79
f 106/172/80 84/118/80 86/120/80
f 86/173/81 85/121/81 88/123/81
f 91/174/82 89/124/82 87/122/82
f 92/128/83 90/125/83 91/127/83
f 90/125/2 92/128/2 7/130/2
f 5/175/84 93/176/84 92/177/84
f 91/178/45 87/179/45 85/180/45
f 85/180/45 84/181/45 82/182/45
f 78/183/45 76/184/45 80/185/45
f 74/186/45 72/187/45 70/188/45
f 67/189/45 65/190/45 69/191/45
f 64/192/45 62/193/45 60/194/45
f 55/195/45 53/196/45 52/197/45
f 48/198/45 46/199/45 50/200/45
f 43/201/45 41/202/45 39/203/45
f 32/204/45 30/131/45 34/205/45
f 28/132/45 27/206/45 25/207/45
f 22/208/45 20/209/45 24/210/45
f 18/211/45 17/212/45 15/213/45
f 8/214/85 1/215/85 10/216/85
f 2/217/45 1/215/45 6/218/45
f 5/175/86 92/177/86 91/178/86
f 91/178/45 85/180/45 82/182/45
f 55/195/45 44/219/45 38/220/45
f 70/188/45 65/190/45 74/186/45
f 1/215/45 12/133/45 10/216/45
f 64/192/45 60/194/45 58/221/45
f 95/222/46 3/223/46 96/224/46
f 43/201/45 39/203/45 38/220/45
f 82/182/45 36/225/45 30/131/45
f 65/190/45 70/188/45 69/191/45
f 18/211/45 15/213/45 13/226/45
f 30/131/45 36/225/45 34/205/45
f 1/215/45 5/175/45 91/178/45
f 76/184/45 36/225/45 82/182/45
f 56/227/45 55/195/45 38/220/45
f 65/190/45 64/192/45 58/221/45
f 46/199/45 52/197/45 50/200/45
f 44/219/45 43/201/45 38/220/45
f 1/215/45 8/214/45 6/218/45
f 76/184/45 74/186/45 58/221/45
f 20/209/45 18/211/45 13/226/45
f 20/209/45 28/132/45 25/207/45
f 91/178/45 30/131/45 12/133/45
f 56/227/45 76/184/45 58/221/45
f 46/199/45 44/219/45 52/197/45
f 36/225/45 56/227/45 38/220/45
f 28/132/45 20/209/45 13/226/45
f 12/133/45 1/215/45 91/178/45
f 91/178/45 82/182/45 30/131/45
f 44/219/45 55/195/45 52/197/45
f 20/209/45 25/207/45 24/210/45
f 28/132/45 13/226/45 12/133/45
f 74/186/45 65/190/45 58/221/45
f 97/228/46 95/222/46 11/229/46
f 76/184/45 82/182/45 80/185/45
f 56/227/45 36/225/45 76/184/45
f 98/230/46 19/231/46 16/232/46
f 21/233/46 23/234/46 99/235/46
f 26/236/46 100/237/46 29/238/46
f 31/239/46 33/240/46 35/241/46
f 42/242/46 101/243/46 40/244/46
f 47/245/46 49/246/46 51/247/46
f 102/248/46 54/249/46 103/250/46
f 63/251/46 104/252/46 61/253/46
f 66/254/46 68/255/46 105/256/46
f 71/257/46 73/258/46 75/259/46
f 77/260/46 79/261/46 81/262/46
f 83/263/46 106/264/46 86/265/46
f 86/265/46 88/266/46 89/267/46
f 7/268/46 4/269/46 90/270/46
f 95/222/46 96/224/46 9/271/46
f 29/238/46 97/228/46 14/272/46
f 21/233/46 99/235/46 26/236/46
f 31/239/46 35/241/46 37/134/46
f 66/254/46 71/257/46 75/259/46
f 51/247/46 102/248/46 47/245/46
f 59/273/46 104/252/46 66/254/46
f 66/254/46 105/256/46 71/257/46
f 77/260/46 59/273/46 75/259/46
f 77/260/46 81/262/46 83/263/46
f 83/263/46 86/265/46 89/267/46
f 19/231/46 14/272/46 16/232/46
f 94/135/46 103/250/46 57/136/46
f 14/272/46 19/231/46 21/233/46
f 21/233/46 26/236/46 29/238/46
f 37/134/46 83/263/46 31/239/46
f 101/243/46 45/274/46 94/135/46
f 31/239/46 89/267/46 97/228/46
f 104/252/46 59/273/46 61/253/46
f 102/248/46 45/274/46 47/245/46
f 95/222/46 9/271/46 11/229/46
f 89/267/46 4/269/46 95/222/46
f 21/233/46 29/238/46 14/272/46
f 94/135/46 45/274/46 103/250/46
f 45/274/46 102/248/46 103/250/46
f 59/273/46 66/254/46 75/259/46
f 89/267/46 95/222/46 97/228/46
f 101/243/46 94/135/46 40/244/46
f 83/263/46 89/267/46 31/239/46
f 37/134/46 57/136/46 77/260/46
f 29/238/46 31/239/46 97/228/46
f 4/269/46 89/267/46 90/270/46
f 37/134/46 77/260/46 83/263/46
f 57/136/46 59/273/46 77/260/46
