# Blender v2.70 (sub 0) OBJ File: 'puzzlepiece.blend'
# www.blender.org
o Cube_Cube.006
v 1.024926 0.096868 3.934237
v 1.024926 0.002293 3.934237
v 1.015814 0.002293 2.897872
v -0.000707 0.096868 3.934237
v -0.000707 0.002293 3.934237
v -0.047396 0.096868 3.677311
v -0.047396 0.002293 3.677311
v 0.587655 0.002293 2.123276
v 0.587655 0.096868 2.123276
v 0.794324 0.002293 1.822666
v 0.794324 0.096868 1.822666
v 1.574032 0.002293 1.653574
v 1.574032 0.096868 1.653574
v 2.466468 0.002293 1.907213
v 2.466468 0.096868 1.907213
v 2.939771 0.002293 1.916607
v 2.939771 0.096868 1.916607
v 2.939771 0.002293 0.832662
v 2.939771 0.096868 0.832662
v 3.203726 0.002293 0.746587
v 3.203726 0.096868 0.746587
v 3.203726 0.002293 0.193898
v 3.203726 0.096868 0.193898
v 2.703133 0.002293 0.334335
v 2.703133 0.096868 0.334335
v 2.703133 0.002293 -0.431276
v 2.703133 0.096868 -0.431275
v 2.939771 0.002293 -0.476579
v 2.939771 0.096868 -0.476579
v 2.939771 0.002293 -1.532126
v 2.939771 0.096868 -1.532126
v 2.528719 0.002293 -1.518535
v 2.528719 0.096868 -1.518535
v 1.772168 0.002293 -1.147054
v 1.772168 0.096868 -1.147054
v 1.047329 0.002293 -1.341855
v 1.047329 0.096868 -1.341855
v 0.820816 0.002293 -1.749577
v 0.820816 0.096868 -1.749577
v 0.716621 0.002293 -2.497068
v 0.716621 0.096868 -2.497068
v 0.965784 0.002293 -3.063348
v 0.947663 0.002293 -3.486925
v 0.947663 0.096868 -3.486925
v -0.180368 0.002293 -3.486925
v -0.180368 0.096868 -3.486925
v -0.212079 0.002293 -3.738354
v -0.212079 0.096868 -3.738354
v -0.773830 0.002293 -3.738354
v -0.773830 0.096868 -3.738354
v -0.646983 0.002293 -3.339693
v -0.646983 0.096868 -3.339693
v -0.742118 0.002293 -3.230966
v -0.742118 0.096868 -3.230966
v -1.394473 0.002293 -3.230966
v -1.394473 0.096868 -3.230966
v -1.417125 0.002293 -3.486925
v -1.417125 0.096868 -3.486925
v -2.495323 0.002293 -3.486925
v -2.495323 0.096868 -3.486925
v -2.477202 0.002293 -2.972742
v -2.477202 0.096868 -2.972742
v -2.083071 0.002293 -2.261493
v -2.083071 0.096868 -2.261493
v -2.051359 0.002293 -1.867362
v -2.051359 0.096868 -1.867362
v -2.472672 0.002293 -1.051918
v -2.472672 0.096868 -1.051918
v -2.504384 0.002293 -0.838997
v -2.504384 0.096868 -0.838997
v -2.373007 0.002293 -0.594363
v -2.373007 0.096868 -0.594363
v -2.368476 0.002293 0.116885
v -2.368476 0.096868 0.116885
v -2.209917 0.002293 1.154311
v -2.209917 0.096868 1.154311
v -2.386596 0.002293 1.702471
v -2.386596 0.096868 1.702471
v -2.205386 0.002293 2.536036
v -2.205386 0.096868 2.536036
v -2.409248 0.002293 3.256345
v -2.409248 0.096868 3.256345
v -2.413777 0.002293 3.934237
v -2.413777 0.096868 3.934237
v -1.258565 0.002293 3.934237
v -1.258565 0.096868 3.934237
v -1.231383 0.002293 4.142008
v -1.231383 0.096868 4.142008
v -0.660572 0.002293 4.142008
v -0.660572 0.096868 4.142008
v -0.819131 0.002293 3.677311
v -0.819131 0.096868 3.677311
v 1.015814 0.096868 2.897872
v 0.965784 0.096868 -3.063348
vt 0.526892 0.908349
vt 0.526892 0.889488
vt 0.492564 0.889488
vt 0.526922 0.908349
vt 0.526922 0.889488
vt 0.492593 0.889488
vt 0.483690 0.908349
vt 0.483690 0.889488
vt 0.466512 0.889488
vt 0.466512 0.908349
vt 0.500841 0.889488
vt 0.490841 0.889488
vt 0.490841 0.908349
vt 0.499686 0.889488
vt 0.473540 0.889488
vt 0.473540 0.908349
vt 0.507869 0.889488
vt 0.478076 0.889488
vt 0.478076 0.908349
vt 0.462359 0.889488
vt 0.462359 0.908349
vt 0.494622 0.889488
vt 0.458349 0.889488
vt 0.458349 0.908349
vt 0.495902 0.889488
vt 0.487689 0.889488
vt 0.487689 0.908349
vt 0.489869 0.889488
vt 0.471377 0.889488
vt 0.471377 0.908349
vt 0.486918 0.889488
vt 0.503486 0.889488
vt 0.503486 0.908349
vt 0.475931 0.889488
vt 0.450297 0.889488
vt 0.450297 0.908349
vt 0.504320 0.889488
vt 0.496119 0.889488
vt 0.496119 0.908349
vt 0.483183 0.889488
vt 0.447858 0.889488
vt 0.447858 0.908349
vt 0.495502 0.889488
vt 0.509303 0.889488
vt 0.509303 0.908349
vt 0.474974 0.889488
vt 0.500405 0.889488
vt 0.500405 0.908349
vt 0.524607 0.889488
vt 0.524607 0.908349
vt 0.487992 0.889488
vt 0.474279 0.889488
vt 0.474279 0.908349
vt 0.449231 0.889488
vt 0.449231 0.908349
vt 0.483560 0.908349
vt 0.483560 0.889488
vt 0.464681 0.889488
vt 0.499010 0.889488
vt 0.483388 0.889488
vt 0.483388 0.908349
vt 0.492963 0.889488
vt 0.530721 0.889488
vt 0.530721 0.908349
vt 0.483659 0.889488
vt 0.476372 0.889488
vt 0.476372 0.908349
vt 0.497389 0.889488
vt 0.516185 0.889488
vt 0.516185 0.908349
vt 0.475598 0.889488
vt 0.489282 0.889488
vt 0.489282 0.908349
vt 0.493044 0.889488
vt 0.493044 0.908349
vt 0.480949 0.889488
vt 0.502780 0.889488
vt 0.502780 0.908349
vt 0.492547 0.889488
vt 0.485566 0.889488
vt 0.485566 0.908349
vt 0.503476 0.889488
vt 0.539556 0.889488
vt 0.539556 0.908349
vt 0.484639 0.889488
vt 0.501019 0.889488
vt 0.501019 0.908349
vt 0.524940 0.889488
vt 0.524940 0.908349
vt 0.490611 0.889488
vt 0.503812 0.889488
vt 0.503812 0.908349
vt 0.530978 0.889488
vt 0.530978 0.908349
vt 0.496649 0.889488
vt 0.503766 0.889488
vt 0.503766 0.908349
vt 0.511992 0.889488
vt 0.511992 0.908349
vt 0.477663 0.889488
vt 0.501469 0.889488
vt 0.501469 0.908349
vt 0.536237 0.889488
vt 0.536237 0.908349
vt 0.501908 0.889488
vt 0.520202 0.889488
vt 0.520202 0.908349
vt 0.485873 0.889488
vt 0.513825 0.889488
vt 0.513825 0.908349
vt 0.479496 0.889488
vt 0.503543 0.889488
vt 0.503543 0.908349
vt 0.526587 0.889488
vt 0.526587 0.908349
vt 0.504700 0.889488
vt 0.466035 0.889488
vt 0.466035 0.908349
vt 0.492299 0.889488
vt 0.499281 0.889488
vt 0.499281 0.908349
vt 0.499516 0.889488
vt 0.480410 0.889488
vt 0.480410 0.908349
vt 0.499299 0.889488
vt 0.484090 0.889488
vt 0.484090 0.908349
vt 0.519911 0.908349
vt 0.519911 0.889488
vt 0.494077 0.889488
vt 0.979493 0.538969
vt 0.966785 0.627371
vt 0.711638 0.686517
vt 0.039511 0.568913
vt 0.026802 0.480511
vt 0.294658 0.628060
vt 0.492564 0.908349
vt 0.492593 0.908349
vt 0.500841 0.908349
vt 0.499686 0.908349
vt 0.507869 0.908349
vt 0.494622 0.908349
vt 0.495902 0.908349
vt 0.489869 0.908349
vt 0.486918 0.908349
vt 0.475931 0.908349
vt 0.504320 0.908349
vt 0.483183 0.908349
vt 0.495502 0.908349
vt 0.474974 0.908349
vt 0.487992 0.908349
vt 0.464681 0.908349
vt 0.499010 0.908349
vt 0.492963 0.908349
vt 0.483659 0.908349
vt 0.497389 0.908349
vt 0.475598 0.908349
vt 0.480949 0.908349
vt 0.492547 0.908349
vt 0.503476 0.908349
vt 0.484639 0.908349
vt 0.490611 0.908349
vt 0.496649 0.908349
vt 0.477663 0.908349
vt 0.501908 0.908349
vt 0.485873 0.908349
vt 0.479496 0.908349
vt 0.504700 0.908349
vt 0.492299 0.908349
vt 0.499516 0.908349
vt 0.499299 0.908349
vt 0.494077 0.908349
vt 0.729452 0.711942
vt 0.784661 0.842905
vt 0.693602 0.778181
vt 0.529444 0.696131
vt 0.527445 0.603900
vt 0.569407 0.694976
vt 0.504602 0.549742
vt 0.546729 0.561319
vt 0.506562 0.596761
vt 0.526428 0.402657
vt 0.561519 0.403502
vt 0.527997 0.492474
vt 0.626181 0.434542
vt 0.548849 0.496144
vt 0.694542 0.231139
vt 0.790548 0.231828
vt 0.693353 0.270861
vt 0.840872 0.211333
vt 0.830386 0.246125
vt 0.793082 0.213300
vt 0.894074 0.254427
vt 0.895844 0.236676
vt 0.987582 0.234319
vt 0.953408 0.336791
vt 0.986410 0.275968
vt 0.990336 0.457523
vt 0.979341 0.478440
vt 0.987477 0.439428
vt 0.645159 0.672717
vt 0.982234 0.673884
vt 0.967444 0.744955
vt 0.986243 0.864691
vt 0.887930 0.864794
vt 0.985337 0.806097
vt 0.885775 0.882548
vt 0.837197 0.882594
vt 0.780888 0.865467
vt 0.693602 0.865467
vt 0.714984 0.318861
vt 0.706683 0.382549
vt 0.951007 0.370355
vt 0.687715 0.417417
vt 0.120520 0.824090
vt 0.118365 0.806336
vt 0.169098 0.824136
vt 0.850348 0.843923
vt 0.838567 0.255691
vt 0.225408 0.807010
vt 0.221635 0.784448
vt 0.312693 0.807010
vt 0.020053 0.806234
vt 0.020959 0.747640
vt 0.038851 0.686498
vt 0.024061 0.615427
vt 0.026954 0.419983
vt 0.318580 0.358959
vt 0.015959 0.399066
vt 0.018819 0.380971
vt 0.018714 0.175862
vt 0.112222 0.195970
vt 0.019886 0.217511
vt 0.110452 0.178219
vt 0.175910 0.187668
vt 0.165424 0.152876
vt 0.213213 0.154843
vt 0.215747 0.173371
vt 0.311753 0.172682
vt 0.312943 0.212403
vt 0.155948 0.785465
vt 0.457447 0.437687
vt 0.444776 0.345044
vt 0.478299 0.434017
vt 0.459567 0.502862
vt 0.501693 0.491285
vt 0.499734 0.538303
vt 0.478851 0.545443
vt 0.476852 0.637673
vt 0.436888 0.636519
vt 0.055288 0.311897
vt 0.380115 0.376084
vt 0.291311 0.260404
vt 0.361136 0.614260
vt 0.299613 0.324092
vt 0.167728 0.197234
vt 0.052887 0.278334
vt 0.276843 0.653485
vt 0.312693 0.719724
vt 0.479868 0.344199
vn 0.999961 0.000000 -0.008792
vn 0.000000 0.000000 1.000000
vn -0.983887 0.000000 0.178793
vn 0.875197 0.000000 -0.483766
vn 0.824042 0.000000 0.566528
vn 0.211940 0.000000 0.977283
vn -0.273383 0.000000 0.961905
vn -0.019845 0.000000 0.999803
vn 1.000000 -0.000002 0.000000
vn 0.310030 -0.000002 0.950727
vn 1.000000 0.000001 0.000000
vn -0.270114 0.000001 -0.962828
vn 1.000000 0.000006 0.000000
vn 0.188030 -0.000001 0.982163
vn 1.000000 0.000000 0.000000
vn -0.033046 0.000000 -0.999454
vn -0.440753 0.000000 -0.897629
vn 0.259541 0.000000 -0.965732
vn 0.874157 0.000000 -0.485644
vn 0.990424 0.000000 -0.138058
vn 0.915315 0.000000 0.402738
vn 0.999086 0.000000 -0.042742
vn 0.000000 0.000000 -1.000000
vn 0.992140 0.000000 -0.125132
vn -0.952926 0.000000 0.303204
vn -0.752580 0.000000 -0.658501
vn 0.996107 0.000000 -0.088154
vn -0.000001 0.000000 -1.000000
vn -0.999380 0.000000 0.035221
vn -0.874683 0.000000 0.484696
vn -0.996779 0.000000 0.080201
vn -0.888426 0.000000 -0.459020
vn -0.989090 0.000000 -0.147313
vn -0.880996 -0.000001 0.473125
vn -0.999980 0.000003 0.006371
vn -0.988521 0.000000 0.151084
vn -0.951783 0.000000 -0.306772
vn -0.977176 0.000000 0.212430
vn -0.962206 0.000000 -0.272323
vn -0.999978 0.000000 -0.006681
vn -0.991551 0.000000 0.129721
vn 0.946423 0.000000 -0.322928
vn 0.000000 1.000000 0.000000
vn -0.000000 -1.000000 -0.000000
vn -0.983887 0.000000 0.178794
vn 0.824043 0.000000 0.566528
vn -0.273384 0.000000 0.961905
vn 0.310030 0.000000 0.950727
vn -0.270114 0.000001 -0.962829
vn 1.000000 -0.000007 0.000000
vn 1.000000 0.000005 0.000000
vn -0.033045 0.000000 -0.999454
vn 0.874156 0.000000 -0.485645
vn -0.880995 0.000000 0.473125
vn -0.999980 0.000000 0.006371
vn -0.962206 0.000000 -0.272324
vn -0.991551 0.000000 0.129720
vn 0.946423 0.000000 -0.322929
s off
f 1/1/1 2/2/1 3/3/1
f 4/4/2 5/5/2 2/6/2
f 6/7/3 7/8/3 5/3/3
f 3/3/4 8/9/4 9/10/4
f 8/11/5 10/12/5 11/13/5
f 10/14/6 12/15/6 13/16/6
f 12/17/7 14/18/7 15/19/7
f 14/18/8 16/20/8 17/21/8
f 16/22/9 18/23/9 19/24/9
f 18/25/10 20/26/10 21/27/10
f 20/28/11 22/29/11 23/30/11
f 22/31/12 24/32/12 25/33/12
f 24/34/13 26/35/13 27/36/13
f 26/37/14 28/38/14 29/39/14
f 28/40/15 30/41/15 31/42/15
f 30/43/16 32/44/16 33/45/16
f 32/46/17 34/47/17 35/48/17
f 34/47/18 36/49/18 37/50/18
f 36/51/19 38/52/19 39/53/19
f 38/52/20 40/54/20 41/55/20
f 41/56/21 40/57/21 42/58/21
f 42/59/22 43/60/22 44/61/22
f 43/62/23 45/63/23 46/64/23
f 45/65/24 47/66/24 48/67/24
f 47/68/23 49/69/23 50/70/23
f 49/71/25 51/72/25 52/73/25
f 51/72/26 53/74/26 54/75/26
f 53/76/23 55/77/23 56/78/23
f 55/79/27 57/80/27 58/81/27
f 57/82/28 59/83/28 60/84/28
f 59/85/29 61/86/29 62/87/29
f 61/86/30 63/88/30 64/89/30
f 63/90/31 65/91/31 66/92/31
f 65/91/32 67/93/32 68/94/32
f 67/95/33 69/96/33 70/97/33
f 69/96/34 71/98/34 72/99/34
f 71/100/35 73/101/35 74/102/35
f 73/101/36 75/103/36 76/104/36
f 75/105/37 77/106/37 78/107/37
f 77/108/38 79/109/38 80/110/38
f 79/111/39 81/112/39 82/113/39
f 81/112/40 83/114/40 84/115/40
f 83/116/2 85/117/2 86/118/2
f 85/119/41 87/120/41 88/121/41
f 87/122/2 89/123/2 90/124/2
f 89/125/42 91/126/42 92/127/42
f 92/128/2 91/129/2 7/130/2
f 74/131/43 76/132/43 11/133/43
f 75/134/44 73/135/44 10/136/44
f 93/137/1 1/1/1 3/3/1
f 1/138/2 4/4/2 2/6/2
f 4/137/45 6/7/45 5/3/45
f 93/137/4 3/3/4 9/10/4
f 9/139/46 8/11/46 11/13/46
f 11/140/6 10/14/6 13/16/6
f 13/141/47 12/17/47 15/19/47
f 15/19/8 14/18/8 17/21/8
f 17/142/15 16/22/15 19/24/15
f 19/143/48 18/25/48 21/27/48
f 21/144/15 20/28/15 23/30/15
f 23/145/49 22/31/49 25/33/49
f 25/146/50 24/34/50 27/36/50
f 27/147/14 26/37/14 29/39/14
f 29/148/51 28/40/51 31/42/51
f 31/149/52 30/43/52 33/45/52
f 33/150/17 32/46/17 35/48/17
f 35/48/18 34/47/18 37/50/18
f 37/151/53 36/51/53 39/53/53
f 39/53/20 38/52/20 41/55/20
f 94/152/21 41/56/21 42/58/21
f 94/153/22 42/59/22 44/61/22
f 44/154/23 43/62/23 46/64/23
f 46/155/24 45/65/24 48/67/24
f 48/156/23 47/68/23 50/70/23
f 50/157/25 49/71/25 52/73/25
f 52/73/26 51/72/26 54/75/26
f 54/158/23 53/76/23 56/78/23
f 56/159/27 55/79/27 58/81/27
f 58/160/23 57/82/23 60/84/23
f 60/161/29 59/85/29 62/87/29
f 62/87/30 61/86/30 64/89/30
f 64/162/31 63/90/31 66/92/31
f 66/92/32 65/91/32 68/94/32
f 68/163/33 67/95/33 70/97/33
f 70/97/54 69/96/54 72/99/54
f 72/164/55 71/100/55 74/102/55
f 74/102/36 73/101/36 76/104/36
f 76/165/37 75/105/37 78/107/37
f 78/166/38 77/108/38 80/110/38
f 80/167/56 79/111/56 82/113/56
f 82/113/40 81/112/40 84/115/40
f 84/168/2 83/116/2 86/118/2
f 86/169/57 85/119/57 88/121/57
f 88/170/2 87/122/2 90/124/2
f 90/171/58 89/125/58 92/127/58
f 6/172/2 92/128/2 7/130/2
f 9/173/43 6/174/43 93/175/43
f 17/176/43 19/177/43 15/178/43
f 23/179/43 25/180/43 21/181/43
f 31/182/43 33/183/43 29/184/43
f 35/185/43 27/186/43 33/183/43
f 44/187/43 46/188/43 94/189/43
f 50/190/43 52/191/43 48/192/43
f 56/193/43 58/194/43 60/195/43
f 64/196/43 56/193/43 62/197/43
f 70/198/43 72/199/43 68/200/43
f 13/201/43 25/180/43 35/185/43
f 76/132/43 78/202/43 80/203/43
f 84/204/43 86/205/43 82/206/43
f 86/205/43 88/207/43 90/208/43
f 4/209/43 1/210/43 6/174/43
f 46/188/43 41/211/43 94/189/43
f 39/212/43 66/213/43 72/199/43
f 37/214/43 72/199/43 74/131/43
f 9/173/43 11/133/43 76/132/43
f 33/183/43 27/186/43 29/184/43
f 87/215/44 85/216/44 89/217/44
f 25/180/43 19/177/43 21/181/43
f 19/177/43 13/201/43 15/178/43
f 86/205/43 90/208/43 92/218/43
f 64/196/43 66/213/43 54/219/43
f 19/177/43 25/180/43 13/201/43
f 25/180/43 27/186/43 35/185/43
f 46/188/43 54/219/43 41/211/43
f 46/188/43 52/191/43 54/219/43
f 54/219/43 56/193/43 64/196/43
f 54/219/43 39/212/43 41/211/43
f 80/203/43 86/205/43 92/218/43
f 92/218/43 6/174/43 9/173/43
f 56/193/43 60/195/43 62/197/43
f 37/214/43 13/201/43 35/185/43
f 72/199/43 66/213/43 68/200/43
f 66/213/43 39/212/43 54/219/43
f 37/214/43 39/212/43 72/199/43
f 9/173/43 80/203/43 92/218/43
f 11/133/43 13/201/43 37/214/43
f 86/205/43 80/203/43 82/206/43
f 80/203/43 9/173/43 76/132/43
f 5/220/44 7/221/44 2/222/44
f 52/191/43 46/188/43 48/192/43
f 37/214/43 74/131/43 11/133/43
f 6/174/43 1/210/43 93/175/43
f 85/216/44 83/223/44 81/224/44
f 79/225/44 77/226/44 75/134/44
f 71/227/44 36/228/44 73/135/44
f 71/227/44 69/229/44 67/230/44
f 59/231/44 55/232/44 61/233/44
f 59/231/44 57/234/44 55/232/44
f 51/235/44 49/236/44 47/237/44
f 45/238/44 43/239/44 42/240/44
f 85/216/44 91/241/44 89/217/44
f 26/242/44 32/243/44 28/244/44
f 24/245/44 22/246/44 20/247/44
f 18/248/44 16/249/44 14/250/44
f 73/135/44 36/228/44 10/136/44
f 85/216/44 81/224/44 79/225/44
f 71/227/44 67/230/44 65/251/44
f 26/242/44 34/252/44 32/243/44
f 47/237/44 45/238/44 51/235/44
f 45/238/44 42/240/44 40/253/44
f 34/252/44 24/245/44 12/254/44
f 24/245/44 20/247/44 18/248/44
f 18/248/44 14/250/44 12/254/44
f 36/228/44 34/252/44 12/254/44
f 91/241/44 85/216/44 79/225/44
f 65/251/44 38/255/44 71/227/44
f 55/232/44 53/256/44 63/257/44
f 53/256/44 65/251/44 63/257/44
f 38/255/44 53/256/44 40/253/44
f 26/242/44 24/245/44 34/252/44
f 24/245/44 18/248/44 12/254/44
f 8/258/44 7/221/44 91/241/44
f 75/134/44 8/258/44 79/225/44
f 38/255/44 36/228/44 71/227/44
f 7/221/44 8/258/44 3/259/44
f 7/221/44 3/259/44 2/222/44
f 10/136/44 36/228/44 12/254/44
f 55/232/44 63/257/44 61/233/44
f 75/134/44 10/136/44 8/258/44
f 38/255/44 65/251/44 53/256/44
f 45/238/44 53/256/44 51/235/44
f 53/256/44 45/238/44 40/253/44
f 32/243/44 30/260/44 28/244/44
f 8/258/44 91/241/44 79/225/44
