# 3ds Max Wavefront OBJ Exporter v0.97b - (c)2007 guruware
# File Created: 06.07.2017 23:06:49

mtllib NTW_infantry_collision_box.mtl

#
# object Box001
#

v  -0.1725 1.6747 0.0858
v  -0.1725 -0.0002 0.0858
v  0.1638 -0.0002 0.0858
v  0.1638 1.6747 0.0858
v  0.1638 -0.0002 -0.1026
v  -0.1725 -0.0002 -0.1026
v  -0.1725 1.6747 -0.1026
v  0.1638 1.6747 -0.1026
# 8 vertices

vn 0.0000 -0.0000 1.0000
vn 0.0000 0.0000 -1.0000
vn 0.0000 -1.0000 -0.0000
vn 1.0000 0.0000 -0.0000
vn 0.0000 1.0000 0.0000
vn -1.0000 0.0000 -0.0000
# 6 vertex normals

vt 0.0000 1.0000 0.0000
vt 0.0000 0.0000 0.0000
vt 1.0000 0.0000 0.0000
vt 1.0000 1.0000 0.0000
# 4 texture coords

g Box001
usemtl wire_153228153
s 2
f 1/1/1 2/2/1 3/3/1 4/4/1 
s 4
f 5/2/2 6/3/2 7/4/2 8/1/2 
s 8
f 3/3/3 2/2/3 6/1/3 5/4/3 
s 16
f 4/3/4 3/2/4 5/1/4 8/4/4 
s 32
f 1/3/5 4/2/5 8/1/5 7/4/5 
s 64
f 2/3/6 1/2/6 7/1/6 6/4/6 
# 6 polygons

