# Blender v2.79 (sub 0) OBJ File: 'IAmodelbinding.blend'
# www.blender.org
o Circle.029
v 0.000000 -0.119148 -0.000002
v -1.111140 -0.119148 1.662940
v -1.414214 -0.119148 1.414214
v 0.000000 0.085112 -0.000002
v -1.961570 0.085112 -0.390180
v -2.000000 0.085112 0.000000
v 1.414212 -0.119148 -1.414216
v 1.111138 -0.119148 -1.662940
v 1.111138 0.085112 -1.662940
v 1.414212 0.085112 -1.414216
v 0.390182 -0.119148 1.961570
v 0.765368 -0.119148 1.847758
v 0.765368 0.085112 1.847758
v 0.390182 0.085112 1.961570
v -1.847760 -0.119148 -0.765366
v -1.961570 -0.119148 -0.390180
v -1.847760 0.085112 -0.765366
v 1.847758 -0.119148 -0.765368
v 1.662938 -0.119148 -1.111142
v 1.662938 0.085112 -1.111142
v 1.847758 0.085112 -0.765368
v -1.414214 -0.119148 -1.414214
v -1.662940 -0.119148 -1.111140
v -1.662940 0.085112 -1.111140
v -1.414214 0.085112 -1.414214
v -0.390180 -0.119148 1.961570
v 0.000000 -0.119148 2.000000
v 0.000000 0.085112 2.000000
v -0.390180 0.085112 1.961570
v 2.000000 -0.119148 -0.000002
v 1.961570 -0.119148 -0.390182
v 1.961570 0.085112 -0.390182
v 2.000000 0.085112 -0.000002
v -0.765366 -0.119148 -1.847760
v -1.111140 -0.119148 -1.662940
v -1.111140 0.085112 -1.662940
v -0.765366 0.085112 -1.847760
v -0.765366 -0.119148 1.847760
v -0.765366 0.085112 1.847760
v -1.111140 0.085112 1.662940
v 1.847760 -0.119148 0.765366
v 1.961570 -0.119148 0.390178
v 1.961570 0.085112 0.390178
v 1.847760 0.085112 0.765366
v 0.000000 -0.119148 -2.000000
v -0.390180 -0.119148 -1.961570
v -0.390180 0.085112 -1.961570
v 0.000000 0.085112 -2.000000
v -1.662940 -0.119148 1.111140
v -1.414214 0.085112 1.414214
v -1.662940 0.085112 1.111140
v 0.390178 -0.119148 -1.961572
v 0.390178 0.085112 -1.961572
v 1.414214 -0.119148 1.414212
v 1.662940 -0.119148 1.111140
v 1.662940 0.085112 1.111140
v 1.414214 0.085112 1.414212
v -1.961570 -0.119148 0.390180
v -1.847760 -0.119148 0.765366
v -1.847760 0.085112 0.765366
v -1.961570 0.085112 0.390180
v 0.765364 -0.119148 -1.847760
v 0.765364 0.085112 -1.847760
v 1.111142 -0.119148 1.662938
v 1.111142 0.085112 1.662938
v -2.000000 -0.119148 -0.000000
vn 0.0000 -1.0000 0.0000
vn -0.4044 -0.6857 0.6052
vn -0.5147 -0.6857 0.5147
vn 0.0000 1.0000 0.0000
vn -0.7139 0.6857 -0.1420
vn -0.7279 0.6857 0.0000
vn 0.4044 -0.6857 -0.6052
vn 0.5147 0.6857 -0.5147
vn 0.5147 -0.6857 -0.5147
vn 0.2785 -0.6857 0.6725
vn 0.1420 0.6857 0.7139
vn 0.1420 -0.6857 0.7139
vn -0.7139 -0.6857 -0.1420
vn -0.6725 0.6857 -0.2785
vn -0.6725 -0.6857 -0.2785
vn 0.6052 -0.6857 -0.4044
vn 0.6725 0.6857 -0.2785
vn 0.6725 -0.6857 -0.2785
vn -0.5147 -0.6857 -0.5147
vn -0.6052 0.6857 -0.4044
vn -0.5147 0.6857 -0.5147
vn 0.0000 -0.6857 0.7279
vn -0.1420 0.6857 0.7139
vn -0.1420 -0.6857 0.7139
vn 0.7139 -0.6857 -0.1420
vn 0.7279 0.6857 0.0000
vn 0.7279 -0.6857 0.0000
vn -0.4044 -0.6857 -0.6052
vn -0.2785 0.6857 -0.6725
vn -0.2785 -0.6857 -0.6725
vn -0.2785 -0.6857 0.6725
vn -0.4044 0.6857 0.6052
vn 0.6725 -0.6857 0.2785
vn 0.7139 0.6857 0.1420
vn 0.6725 0.6857 0.2785
vn -0.1420 -0.6857 -0.7139
vn 0.0000 0.6857 -0.7279
vn 0.0000 -0.6857 -0.7279
vn -0.6052 -0.6857 0.4044
vn -0.5147 0.6857 0.5147
vn -0.6052 0.6857 0.4044
vn 0.1420 -0.6857 -0.7139
vn 0.1420 0.6857 -0.7139
vn 0.6052 -0.6857 0.4044
vn 0.5147 0.6857 0.5147
vn 0.5147 -0.6857 0.5147
vn -0.6725 -0.6857 0.2785
vn -0.7139 0.6857 0.1420
vn -0.7139 -0.6857 0.1420
vn 0.2785 -0.6857 -0.6725
vn 0.4044 0.6857 -0.6052
vn 0.4044 -0.6857 0.6052
vn 0.2785 0.6857 0.6725
vn -0.7279 -0.6857 0.0000
vn 0.6052 0.6857 -0.4044
vn 0.0000 0.6857 0.7279
vn -0.6052 -0.6857 -0.4044
vn 0.7139 0.6857 -0.1420
vn -0.4044 0.6857 -0.6052
vn -0.2785 0.6857 0.6725
vn 0.7139 -0.6857 0.1420
vn -0.1420 0.6857 -0.7139
vn 0.6052 0.6857 0.4044
vn -0.6725 0.6857 0.2785
vn 0.2785 0.6857 -0.6725
vn 0.4044 0.6857 0.6052
s 1
f 1//1 2//2 3//3
f 4//4 5//5 6//6
f 8//7 10//8 7//9
f 12//10 14//11 11//12
f 16//13 17//14 15//15
f 19//16 21//17 18//18
f 22//19 24//20 25//21
f 27//22 29//23 26//24
f 31//25 33//26 30//27
f 35//28 37//29 34//30
f 38//31 40//32 2//2
f 41//33 43//34 44//35
f 46//36 48//37 45//38
f 49//39 50//40 51//41
f 52//42 48//37 53//43
f 55//44 57//45 54//46
f 59//47 61//48 58//49
f 62//50 9//51 8//7
f 64//52 13//53 12//10
f 66//54 5//5 16//13
f 7//9 20//55 19//16
f 11//12 28//56 27//22
f 15//15 24//20 23//57
f 18//18 32//58 31//25
f 35//28 25//21 36//59
f 26//24 39//60 38//31
f 30//27 43//34 42//61
f 34//30 47//62 46//36
f 3//3 40//32 50//40
f 41//33 56//63 55//44
f 49//39 60//64 59//47
f 52//42 63//65 62//50
f 54//46 65//66 64//52
f 58//49 6//6 66//54
f 4//4 33//26 32//58
f 4//4 28//56 14//11
f 4//4 6//6 61//48
f 4//4 32//58 21//17
f 4//4 21//17 20//55
f 4//4 20//55 10//8
f 4//4 10//8 9//51
f 4//4 9//51 63//65
f 4//4 53//43 48//37
f 48//37 47//62 4//4
f 33//26 4//4 43//34
f 4//4 56//63 44//35
f 43//34 4//4 44//35
f 56//63 4//4 57//45
f 57//45 4//4 65//66
f 65//66 4//4 13//53
f 13//53 4//4 14//11
f 28//56 4//4 29//23
f 29//23 4//4 39//60
f 39//60 4//4 40//32
f 40//32 4//4 50//40
f 50//40 4//4 51//41
f 51//41 4//4 60//64
f 60//64 4//4 61//48
f 4//4 17//14 5//5
f 4//4 24//20 17//14
f 4//4 25//21 24//20
f 4//4 36//59 25//21
f 37//29 36//59 4//4
f 47//62 37//29 4//4
f 1//1 12//10 11//12
f 62//50 8//7 1//1
f 1//1 66//54 16//13
f 1//1 30//27 42//61
f 1//1 23//57 22//19
f 1//1 27//22 26//24
f 1//1 8//7 7//9
f 1//1 55//44 54//46
f 46//36 45//38 1//1
f 1//1 26//24 38//31
f 2//2 1//1 38//31
f 1//1 3//3 49//39
f 1//1 49//39 59//47
f 1//1 59//47 58//49
f 66//54 1//1 58//49
f 1//1 16//13 15//15
f 23//57 1//1 15//15
f 1//1 22//19 35//28
f 34//30 1//1 35//28
f 34//30 46//36 1//1
f 45//38 52//42 1//1
f 52//42 62//50 1//1
f 1//1 7//9 19//16
f 1//1 19//16 18//18
f 30//27 1//1 31//25
f 31//25 1//1 18//18
f 1//1 42//61 41//33
f 55//44 1//1 41//33
f 1//1 54//46 64//52
f 12//10 1//1 64//52
f 27//22 1//1 11//12
f 8//7 9//51 10//8
f 12//10 13//53 14//11
f 16//13 5//5 17//14
f 19//16 20//55 21//17
f 22//19 23//57 24//20
f 27//22 28//56 29//23
f 31//25 32//58 33//26
f 35//28 36//59 37//29
f 38//31 39//60 40//32
f 41//33 42//61 43//34
f 46//36 47//62 48//37
f 49//39 3//3 50//40
f 52//42 45//38 48//37
f 55//44 56//63 57//45
f 59//47 60//64 61//48
f 62//50 63//65 9//51
f 64//52 65//66 13//53
f 66//54 6//6 5//5
f 7//9 10//8 20//55
f 11//12 14//11 28//56
f 15//15 17//14 24//20
f 18//18 21//17 32//58
f 35//28 22//19 25//21
f 26//24 29//23 39//60
f 30//27 33//26 43//34
f 34//30 37//29 47//62
f 3//3 2//2 40//32
f 41//33 44//35 56//63
f 49//39 51//41 60//64
f 52//42 53//43 63//65
f 54//46 57//45 65//66
f 58//49 61//48 6//6
f 4//4 63//65 53//43
